<?xml version="1.0" standalone="no"?>
<!DOCTYPE svg PUBLIC "-//W3C//DTD SVG 20010904//EN"
 "http://www.w3.org/TR/2001/REC-SVG-20010904/DTD/svg10.dtd">
<svg version="1.0" xmlns="http://www.w3.org/2000/svg"
 width="840.000000pt" height="760.000000pt" viewBox="0 0 840.000000 760.000000"
 preserveAspectRatio="xMidYMid meet">

<g transform="translate(0.000000,760.000000) scale(0.100000,-0.100000)"
fill="#000000" stroke="none">
<path d="M1730 7423 c0 -25 -1 -25 -18 -10 -24 22 -32 13 -31 -32 2 -30 3 -32
6 -8 5 31 10 33 35 10 17 -15 18 -14 18 25 0 23 -2 42 -5 42 -3 0 -5 -12 -5
-27z"/>
<path d="M1616 7378 c-23 -32 -21 -68 3 -68 24 0 51 36 51 67 0 30 -33 31 -54
1z m44 -13 c0 -18 -29 -47 -41 -40 -14 9 -11 32 7 49 17 18 34 13 34 -9z"/>
<path d="M1570 7319 c0 -24 4 -38 10 -34 6 3 10 22 10 41 0 19 -4 34 -10 34
-5 0 -10 -18 -10 -41z"/>
<path d="M1533 7338 c-13 -6 -23 -15 -23 -20 0 -5 4 -7 9 -3 5 3 12 -9 14 -27
l4 -33 1 36 c1 19 7 40 14 47 14 14 10 14 -19 0z"/>
<path d="M1472 7294 c-5 -10 -12 -32 -14 -49 -3 -16 -3 -25 -1 -18 5 14 32 25
44 17 12 -7 11 -2 -5 36 -12 30 -14 32 -24 14z m13 -23 c3 -5 1 -12 -5 -16 -5
-3 -10 1 -10 9 0 18 6 21 15 7z"/>
<path d="M1651 7266 c-7 -8 -11 -31 -9 -51 3 -35 4 -35 23 -20 17 14 17 16 3
11 -20 -6 -25 9 -7 20 8 4 7 9 -2 15 -11 7 -10 11 6 23 11 9 15 16 9 16 -6 0
-17 -6 -23 -14z"/>
<path d="M1397 7252 c-18 -20 -23 -72 -8 -72 17 0 41 12 41 20 0 5 -9 6 -20 3
-36 -9 -17 47 20 60 13 5 13 6 -1 6 -9 1 -23 -7 -32 -17z"/>
<path d="M1591 7231 c-24 -24 -29 -81 -7 -81 7 0 19 6 25 14 10 12 8 13 -8 9
-29 -7 -28 31 1 51 12 9 19 18 16 22 -4 3 -16 -4 -27 -15z"/>
<path d="M1321 7211 c-21 -21 -28 -65 -12 -75 5 -3 21 4 35 15 19 15 26 29 24
47 -4 33 -22 38 -47 13z m39 -12 c0 -17 -20 -49 -31 -49 -16 0 -22 29 -9 45
14 17 40 20 40 4z"/>
<path d="M1542 7183 c-2 -24 -16 -30 -27 -13 -13 22 -25 8 -25 -30 0 -22 5
-40 10 -40 6 0 10 12 10 26 0 23 2 25 15 14 21 -17 27 -8 22 32 -2 19 -4 23
-5 11z"/>
<path d="M1262 7142 c-2 -40 -1 -42 18 -32 23 12 27 22 6 14 -11 -4 -16 4 -19
28 -3 29 -4 28 -5 -10z"/>
<path d="M1457 7156 c-23 -18 -25 -91 -1 -82 9 3 18 6 20 6 2 0 4 4 4 10 0 5
-7 7 -15 4 -20 -8 -19 6 3 23 16 14 16 14 0 9 -23 -7 -23 10 -1 23 10 5 16 12
13 14 -3 3 -13 0 -23 -7z"/>
<path d="M1195 7143 c-17 -9 -25 -18 -17 -20 6 -3 12 -18 12 -34 0 -18 4 -28
10 -24 6 3 10 21 10 39 0 17 5 37 12 44 16 16 9 15 -27 -5z"/>
<path d="M1381 7104 c-22 -28 -27 -59 -11 -69 16 -10 50 14 50 36 0 11 -5 17
-10 14 -6 -4 -8 -10 -5 -15 8 -13 -15 -24 -27 -12 -13 13 7 52 27 52 8 0 15 5
15 10 0 18 -18 10 -39 -16z"/>
<path d="M1138 7109 c-12 -7 -18 -22 -18 -49 0 -44 5 -47 35 -24 20 16 20 16
-2 9 -27 -8 -31 9 -5 24 16 10 16 10 -2 11 -18 0 -18 1 -1 20 20 22 18 24 -7
9z"/>
<path d="M6961 7096 c-15 -18 1 -61 29 -76 13 -7 20 -7 20 0 0 5 -6 10 -14 10
-14 0 -26 21 -26 47 0 10 6 14 20 10 25 -6 26 -1 1 12 -14 8 -22 7 -30 -3z"/>
<path d="M1343 7050 c0 -25 2 -35 4 -22 2 12 2 32 0 45 -2 12 -4 2 -4 -23z"/>
<path d="M1070 7060 c-9 -17 -7 -22 10 -28 19 -7 20 -10 7 -20 -11 -10 -20 -9
-42 2 -25 13 -25 15 -8 25 10 6 13 11 8 11 -15 0 -35 -21 -35 -37 0 -7 7 -13
15 -13 20 0 19 -17 -2 -29 -10 -6 -12 -11 -6 -11 7 0 18 9 25 19 6 10 17 17
23 14 15 -5 45 23 45 43 0 8 -7 14 -15 14 -18 0 -20 16 -2 23 9 4 9 6 0 6 -7
1 -17 -8 -23 -19z"/>
<path d="M7027 7063 c-14 -14 -6 -45 18 -69 29 -28 45 -24 45 12 0 36 -44 76
-63 57z m41 -25 c7 -7 12 -20 12 -31 0 -30 -34 -16 -38 16 -4 29 6 35 26 15z"/>
<path d="M1280 7015 c0 -43 1 -44 20 -33 11 7 16 14 10 16 -5 2 -10 17 -10 33
0 16 -4 29 -10 29 -5 0 -10 -20 -10 -45z"/>
<path d="M1232 6987 c-2 -45 -1 -47 18 -35 16 10 17 14 6 16 -8 2 -17 18 -19
35 -3 24 -4 20 -5 -16z"/>
<path d="M7111 6990 c1 -37 2 -41 9 -20 4 14 8 19 9 11 1 -8 4 -12 7 -9 3 4
-1 19 -10 35 l-15 28 0 -45z"/>
<path d="M1193 7003 c-17 -12 -23 -25 -23 -54 0 -38 1 -38 25 -27 14 6 25 16
25 21 0 5 -7 4 -15 -3 -12 -10 -15 -10 -15 4 0 9 5 16 10 16 6 0 10 5 10 11 0
5 -4 7 -10 4 -5 -3 -10 -2 -10 4 0 5 8 14 17 20 10 5 16 12 13 14 -3 3 -15 -2
-27 -10z"/>
<path d="M956 6983 c-4 -16 -9 -37 -12 -48 -4 -18 -4 -18 6 -2 6 9 20 17 30
17 23 0 23 0 10 34 -12 34 -26 33 -34 -1z m20 -20 c-10 -10 -19 5 -10 18 6 11
8 11 12 0 2 -7 1 -15 -2 -18z"/>
<path d="M7147 6980 c-6 -24 2 -60 14 -60 5 0 9 18 9 40 0 42 -14 54 -23 20z"/>
<path d="M7181 6948 c1 -34 2 -38 8 -18 7 24 7 24 20 -8 20 -48 31 -48 30 0
-1 34 -2 38 -8 18 -7 -24 -7 -24 -20 8 -20 48 -31 48 -30 0z"/>
<path d="M1126 6965 c-11 -8 -15 -15 -9 -15 7 0 14 -15 16 -32 l4 -33 1 36 c1
19 7 40 14 47 17 17 -3 14 -26 -3z"/>
<path d="M2210 6956 c-53 -8 -115 -19 -138 -25 l-42 -12 0 -741 0 -740 33 7
c154 33 363 52 435 40 l40 -6 7 -82 c4 -53 1 -134 -10 -230 -8 -81 -13 -152
-10 -157 3 -6 22 -10 41 -10 23 0 33 -4 28 -11 -3 -6 -16 -8 -29 -5 -19 5 -23
1 -27 -24 -3 -17 -2 -32 0 -35 12 -12 57 -4 88 15 20 13 35 17 39 10 3 -5 25
-11 48 -12 l42 -1 -38 -4 c-37 -4 -38 -5 -35 -41 4 -51 37 -54 104 -10 40 27
50 39 52 66 3 30 1 32 -30 32 l-33 0 0 235 c-1 258 -5 239 52 218 16 -6 -7 69
-43 138 l-29 54 -3 -32 c-2 -24 -9 -33 -25 -35 -35 -5 -118 12 -159 33 -27 14
-38 16 -38 7 -1 -29 -32 42 -65 149 -3 9 -13 9 -40 -3 -20 -8 -40 -12 -45 -9
-16 10 -96 138 -108 174 -7 19 -12 45 -12 57 0 19 -5 24 -26 24 -14 0 -38 -9
-53 -19 -48 -34 -74 -35 -110 -5 -27 22 -31 32 -27 59 10 60 26 90 72 131 l46
40 -35 -4 c-30 -3 -35 -1 -41 23 -5 21 -1 32 26 58 l33 31 -36 9 c-30 7 -36
12 -31 29 4 17 2 19 -17 13 -20 -6 -21 -4 -15 22 12 52 43 72 45 31 1 -14 4
-10 8 12 4 22 12 36 24 38 20 4 22 -20 8 -80 -5 -21 -7 -38 -5 -38 2 0 13 18
24 40 12 23 32 46 45 52 14 6 27 19 30 29 3 10 11 16 18 13 7 -2 39 7 72 21
33 13 52 25 42 25 -10 0 -20 7 -24 16 -5 13 -12 10 -37 -19 -29 -33 -34 -35
-71 -29 -25 5 -41 13 -43 23 -2 10 28 45 74 88 64 58 84 71 111 71 20 0 36 -6
39 -14 3 -8 15 -16 26 -19 11 -3 17 -10 13 -16 -3 -6 -1 -11 4 -11 6 0 11 4
11 8 0 12 67 42 94 42 45 0 86 13 86 26 0 32 56 10 78 -31 10 -17 11 -18 12
-2 0 26 102 24 153 -3 20 -11 49 -20 63 -20 14 0 39 -11 55 -24 15 -13 52 -32
81 -42 29 -9 57 -24 62 -33 6 -9 40 -44 77 -79 70 -66 101 -120 113 -199 7
-47 -4 -56 -28 -22 -13 20 -14 20 -18 2 -4 -15 -7 -14 -18 10 -7 15 -19 27
-26 27 -10 0 -10 -7 2 -35 26 -63 13 -113 -23 -83 -15 11 -16 11 -9 -7 16 -40
18 -55 7 -55 -6 0 -17 13 -25 28 -8 16 -23 35 -33 43 -16 12 -17 12 -7 -1 14
-19 34 -91 34 -120 0 -20 -3 -21 -42 -15 -24 4 -49 12 -56 18 -24 19 -34 -6
-18 -45 11 -26 12 -38 4 -46 -16 -16 -35 -15 -41 2 -3 8 -16 20 -28 27 -19 10
-21 9 -16 -5 4 -9 2 -16 -3 -16 -6 0 -10 6 -10 13 0 19 -33 47 -54 47 -19 0
-66 46 -66 66 0 22 -21 27 -41 8 -10 -9 -19 -25 -19 -36 0 -21 -18 -25 -26 -5
-7 18 -74 9 -74 -10 0 -8 14 -19 30 -25 25 -8 33 -19 44 -61 8 -29 18 -79 21
-112 4 -33 22 -110 41 -172 40 -129 55 -243 33 -243 -8 -1 13 -11 46 -24 183
-71 314 -166 385 -281 23 -37 25 -52 30 -195 l5 -155 23 70 22 70 -2 795 -3
795 -33 67 c-86 175 -329 319 -627 373 -123 23 -385 28 -505 11z m410 -185 c0
-5 -16 -19 -36 -30 -23 -14 -34 -27 -30 -36 7 -21 -6 -26 -28 -10 -25 19 -12
53 27 70 37 16 67 19 67 6z m-230 -28 c0 -9 -28 -32 -33 -27 -3 3 -14 0 -25
-7 -18 -11 -24 -10 -42 6 -20 18 -20 20 -4 25 20 7 104 9 104 3z m386 -48 c16
-12 17 -14 2 -15 -23 0 -48 11 -48 21 0 14 24 11 46 -6z m535 -617 c2 -32 -2
-92 -7 -97 -2 -2 -13 4 -24 14 -24 21 -27 50 -5 41 12 -4 15 3 15 29 0 38 19
49 21 13z m-181 -78 c0 -5 -2 -10 -4 -10 -3 0 -8 5 -11 10 -3 6 -1 10 4 10 6
0 11 -4 11 -10z m80 -74 c8 -36 -2 -50 -14 -20 -8 20 -8 69 0 61 3 -3 9 -22
14 -41z m-208 -33 c60 -63 86 -103 68 -103 -14 0 -25 11 -82 80 -53 67 -62 80
-50 80 5 0 34 -26 64 -57z m48 -3 c12 -16 17 -30 13 -30 -5 0 -19 14 -31 30
-13 17 -18 30 -13 30 5 0 19 -13 31 -30z m136 -56 c4 -27 6 -66 5 -86 -2 -38
-51 -9 -65 40 -6 18 -3 22 13 22 20 0 25 10 22 39 -2 7 3 11 10 9 7 -2 14 -13
15 -24z m65 -88 c-14 -15 -18 -29 -14 -45 5 -21 4 -22 -16 -12 -23 13 -26 23
-11 51 6 12 16 17 26 13 14 -5 15 -3 4 17 -10 18 -9 24 1 31 25 15 32 -31 10
-55z m-108 -12 c21 -20 35 -39 32 -42 -3 -3 -25 13 -48 36 -51 51 -37 56 16 6z
m151 -121 c13 -27 26 -73 30 -103 6 -54 6 -55 -9 -25 -13 27 -15 27 -10 5 12
-55 16 -156 6 -170 -15 -22 -51 15 -51 54 0 41 -14 60 -42 61 -21 0 -23 5 -26
63 l-3 62 31 0 c17 0 39 -9 51 -21 25 -25 33 -20 20 12 -5 13 -10 19 -10 12
-1 -7 -8 -10 -16 -7 -20 8 -19 24 0 24 12 0 13 4 5 19 -10 20 -14 61 -5 61 2
0 15 -21 29 -47z m-36 -11 c6 -18 -15 -14 -22 4 -4 10 -1 14 6 12 6 -2 14 -10
16 -16z m-583 -288 c11 -76 12 -119 5 -184 -5 -47 -10 -88 -10 -92 0 -5 -11
-8 -25 -8 -29 0 -29 1 -15 102 5 40 12 122 16 181 3 60 8 107 10 104 2 -2 11
-48 19 -103z"/>
<path d="M1090 6920 c0 -30 0 -30 -25 -14 l-25 16 1 -43 c2 -30 3 -35 6 -17 4
27 5 27 29 12 l24 -16 0 46 c0 25 -2 46 -5 46 -3 0 -5 -14 -5 -30z"/>
<path d="M7260 6900 c0 -31 5 -42 23 -51 21 -12 21 -11 5 8 -20 21 -24 38 -8
28 6 -3 10 -1 10 4 0 6 -4 11 -10 11 -5 0 -10 5 -10 11 0 6 7 9 15 5 8 -3 15
-1 15 3 0 8 -23 21 -36 21 -2 0 -4 -18 -4 -40z"/>
<path d="M1013 6860 c0 -25 2 -35 4 -22 2 12 2 32 0 45 -2 12 -4 2 -4 -23z"/>
<path d="M7310 6877 c0 -30 27 -67 48 -66 13 0 12 3 -5 11 -25 12 -40 45 -26
59 5 5 22 0 41 -11 26 -16 32 -26 33 -57 2 -34 2 -35 6 -8 3 16 9 33 15 36 11
7 -76 59 -98 59 -8 0 -14 -10 -14 -23z"/>
<path d="M7440 6802 c0 -37 22 -73 37 -59 3 4 -2 9 -11 13 -21 8 -21 24 2 24
16 1 16 1 0 11 -22 12 -24 31 -3 23 22 -9 18 4 -5 16 -18 10 -20 8 -20 -28z"/>
<path d="M7500 6761 c0 -38 11 -51 46 -51 21 0 17 33 -7 64 -28 36 -39 33 -39
-13z m47 -25 c-9 -26 -32 -10 -35 24 l-2 35 20 -24 c11 -13 19 -29 17 -35z"/>
<path d="M7591 6708 c1 -36 2 -39 9 -18 l7 25 8 -27 c7 -27 25 -39 25 -18 0
23 19 8 23 -17 3 -20 4 -15 6 15 1 39 -10 55 -24 32 -11 -18 -23 -11 -34 20
-14 42 -21 37 -20 -12z"/>
<path d="M1207 6521 c-196 -115 -366 -216 -377 -226 -20 -18 -20 -29 -18 -574
l3 -556 25 -2 c17 -2 137 62 375 201 l350 203 0 95 c0 78 3 100 18 116 18 19
17 20 -37 51 l-55 32 -38 -24 c-75 -47 -83 -50 -83 -29 0 12 17 28 46 44 39
21 43 26 30 38 -13 10 -16 10 -16 -1 0 -8 -32 -31 -70 -52 -60 -33 -70 -36
-70 -20 1 12 26 33 75 61 42 23 75 49 75 58 0 12 -5 11 -22 -6 -12 -11 -25
-20 -30 -20 -15 0 -8 27 11 44 16 15 24 15 60 4 26 -8 41 -19 41 -29 0 -10 15
-20 38 -27 24 -8 43 -22 54 -41 9 -16 35 -39 58 -51 29 -15 46 -32 57 -58 30
-73 65 -90 103 -52 14 14 20 33 20 65 0 38 -6 51 -45 95 -44 49 -48 58 -60
131 -8 51 -34 72 -85 67 l-40 -4 0 338 c0 316 -1 338 -17 337 -10 0 -179 -94
-376 -208z m351 142 c-5 -25 -28 -28 -28 -4 0 12 6 21 16 21 9 0 14 -7 12 -17z
m-48 -17 c0 -16 -14 -36 -26 -36 -14 0 -19 22 -7 33 7 8 33 10 33 3z m-60 -40
c0 -18 -26 -40 -34 -27 -9 14 4 41 20 41 8 0 14 -6 14 -14z m50 -184 c0 -11
-11 -24 -25 -30 -21 -10 -25 -9 -25 5 0 15 27 42 43 43 4 0 7 -8 7 -18z m-70
-39 c0 -12 -24 -32 -66 -55 -73 -42 -84 -45 -84 -24 0 11 129 94 148 96 1 0 2
-8 2 -17z m78 -10 c-2 -9 -32 -34 -68 -55 -72 -42 -80 -44 -80 -24 0 12 123
95 143 96 5 0 7 -8 5 -17z m-8 -57 c0 -8 -10 -22 -22 -31 -21 -14 -23 -14 -27
2 -2 9 5 23 15 30 23 17 34 17 34 -1z m-247 -51 c-23 -18 -33 -19 -33 -1 0 7
10 20 23 29 19 13 22 13 25 0 2 -8 -5 -21 -15 -28z m95 1 c-1 -1 -52 -31 -113
-66 -60 -34 -125 -71 -142 -82 -32 -19 -33 -19 -33 -1 0 26 283 191 288 167 2
-8 2 -17 0 -18z m80 7 c-2 -9 -32 -34 -68 -55 -72 -42 -80 -44 -80 -24 0 12
123 95 143 96 5 0 7 -8 5 -17z m-218 -17 c0 -8 -22 -28 -50 -45 -45 -28 -50
-29 -50 -12 0 12 17 29 43 45 49 29 57 31 57 12z m280 0 c0 -16 -18 -31 -27
-22 -8 8 5 36 17 36 5 0 10 -6 10 -14z m-40 -24 c0 -11 -10 -24 -22 -30 -13
-6 -47 -25 -75 -42 -47 -27 -53 -28 -53 -12 0 12 24 32 73 60 39 23 73 42 75
42 1 0 2 -8 2 -18z m-362 -63 c-19 -13 -28 -11 -28 6 0 21 34 38 38 18 2 -9
-2 -19 -10 -24z m182 14 c0 -10 -11 -23 -25 -30 -21 -9 -25 -9 -25 6 0 14 8
20 48 40 1 0 2 -7 2 -16z m248 -20 c-2 -10 -22 -28 -46 -41 -39 -22 -42 -22
-42 -5 0 10 16 27 38 40 45 27 54 28 50 6z m-491 -17 c-3 -8 -20 -22 -36 -31
-26 -13 -31 -13 -31 -1 0 13 60 57 69 50 2 -2 1 -10 -2 -18z m183 0 c0 -8 -20
-26 -44 -40 -52 -30 -56 -31 -56 -12 0 8 19 26 43 40 48 30 57 31 57 12z m80
-4 c0 -11 -15 -27 -34 -38 -19 -10 -71 -40 -115 -66 -68 -39 -81 -44 -81 -28
0 13 34 38 113 84 61 36 113 65 115 65 1 1 2 -7 2 -17z m110 3 c0 -14 -29 -35
-49 -35 -17 0 -13 21 7 36 23 18 42 17 42 -1z m-70 -34 c0 -13 -31 -36 -106
-80 -58 -33 -108 -61 -110 -61 -2 0 -4 8 -4 18 1 11 37 38 108 79 59 34 108
62 110 62 1 1 2 -7 2 -18z m90 -6 c0 -11 -108 -85 -126 -85 -2 0 -4 8 -4 18 0
10 22 29 58 49 65 37 72 39 72 18z m64 -32 c-23 -17 -34 -17 -34 1 0 8 10 22
23 31 20 14 22 14 26 -2 2 -9 -5 -23 -15 -30z m-454 28 c0 -9 -52 -51 -64 -51
-17 0 -3 27 22 42 32 19 42 21 42 9z m70 -14 c0 -14 -20 -37 -32 -37 -12 0
-10 24 4 38 16 16 28 15 28 -1z m330 -26 c0 -13 -27 -34 -89 -70 -49 -28 -92
-51 -96 -51 -3 0 -5 7 -3 16 2 12 155 113 186 123 1 1 2 -7 2 -18z m-400 -18
c0 -5 -16 -18 -35 -31 -26 -16 -35 -18 -35 -8 0 7 10 21 23 29 24 17 47 22 47
10z m250 -17 c0 -12 -40 -46 -55 -46 -14 0 -2 31 17 44 28 20 38 20 38 2z
m180 -4 c0 -11 -10 -24 -22 -30 -13 -6 -47 -25 -75 -42 -47 -27 -53 -28 -53
-12 0 12 24 32 73 60 39 23 73 42 75 42 1 0 2 -8 2 -18z m-430 -35 c0 -7 -16
-21 -35 -30 -30 -14 -35 -14 -35 -2 0 8 12 21 28 29 34 19 42 19 42 3z m180
-1 c0 -8 -22 -28 -50 -45 -45 -28 -50 -29 -50 -12 0 12 17 29 43 45 49 29 57
31 57 12z m-110 -11 c0 -8 -9 -19 -20 -25 -17 -9 -20 -8 -20 9 0 17 11 28 33
30 4 1 7 -6 7 -14z m-70 -40 c0 -8 -13 -21 -30 -30 -36 -18 -40 -19 -40 -2 0
10 44 40 68 46 1 1 2 -6 2 -14z m190 1 c0 -8 -4 -18 -10 -21 -5 -3 -10 3 -10
14 0 12 5 21 10 21 6 0 10 -6 10 -14z m-132 -37 c-19 -13 -28 -11 -28 6 0 21
34 38 38 18 2 -9 -2 -19 -10 -24z m212 27 c0 -15 -229 -150 -239 -141 -12 13
19 38 114 94 105 62 125 70 125 47z m-120 -11 c0 -13 -38 -42 -97 -74 -20 -10
-23 -9 -23 7 0 11 20 30 53 49 61 36 67 38 67 18z m190 1 c0 -8 -44 -40 -97
-72 -54 -31 -113 -66 -131 -77 l-34 -20 4 22 c2 15 36 40 123 91 66 38 123 69
128 69 4 1 7 -5 7 -13z m-343 -40 c-3 -8 -20 -22 -36 -31 -26 -13 -31 -13 -31
-1 0 13 60 57 69 50 2 -2 1 -10 -2 -18z m3 -45 c0 -9 -52 -51 -64 -51 -17 0
-3 27 22 42 32 19 42 21 42 9z m470 -5 c0 -7 -11 -21 -25 -30 -24 -16 -25 -15
-25 3 0 11 8 25 18 30 24 14 32 13 32 -3z m-234 -43 c-11 -11 -19 6 -11 24 8
17 8 17 12 0 3 -10 2 -21 -1 -24z m84 9 c0 -11 -11 -24 -25 -30 -21 -10 -25
-9 -25 5 0 15 27 42 43 43 4 0 7 -8 7 -18z m-110 -12 c0 -11 -4 -20 -10 -20
-5 0 -10 9 -10 20 0 11 5 20 10 20 6 0 10 -9 10 -20z m190 6 c0 -11 -67 -58
-132 -93 -5 -2 -8 4 -8 14 0 12 22 31 63 55 70 42 77 44 77 24z m-400 -13 c0
-5 -16 -18 -35 -31 -26 -16 -35 -18 -35 -8 0 7 10 21 23 29 24 17 47 22 47 10z
m53 -38 c-15 -12 -19 -11 -22 3 -2 8 5 22 15 29 16 12 19 12 22 -2 2 -9 -5
-23 -15 -30z m127 30 c0 -8 -20 -26 -43 -40 -51 -29 -57 -30 -57 -11 0 8 19
26 43 40 49 30 57 31 57 11z m80 -4 c0 -13 -28 -34 -92 -72 -51 -29 -104 -59
-116 -68 -23 -14 -24 -13 -20 8 2 16 33 39 113 85 61 35 111 65 113 65 1 1 2
-7 2 -18z m200 5 c0 -8 -4 -18 -10 -21 -5 -3 -10 3 -10 14 0 12 5 21 10 21 6
0 10 -6 10 -14z m-42 -40 c-28 -19 -132 -76 -139 -76 -5 0 -9 6 -9 14 0 8 33
33 73 55 57 32 73 37 75 25 2 -9 2 -17 0 -18z m-418 -9 c0 -7 -16 -21 -35 -30
-43 -21 -49 -1 -7 25 33 21 42 22 42 5z m58 -38 c-19 -13 -28 -11 -28 6 0 21
34 38 38 18 2 -9 -2 -19 -10 -24z m182 11 c0 -11 -4 -20 -10 -20 -5 0 -10 9
-10 20 0 11 5 20 10 20 6 0 10 -9 10 -20z m-30 -14 c0 -8 -4 -18 -10 -21 -5
-3 -10 3 -10 14 0 12 5 21 10 21 6 0 10 -6 10 -14z m278 -3 c-2 -9 -52 -45
-113 -80 -91 -52 -111 -60 -114 -46 -2 10 1 19 5 20 5 2 54 30 109 63 55 32
104 59 108 60 5 0 7 -8 5 -17z m-491 -15 c-2 -7 -19 -21 -36 -31 -44 -26 -43
4 1 31 34 22 44 22 35 0z m183 -2 c0 -15 -88 -71 -97 -62 -12 11 8 36 44 55
46 24 53 25 53 7z m63 -31 c-25 -19 -33 -18 -33 3 0 24 43 46 48 25 2 -8 -5
-21 -15 -28z m127 34 c0 -12 -29 -38 -42 -39 -12 0 -9 25 4 38 15 15 38 16 38
1z m-70 -37 c0 -26 -213 -149 -218 -126 -2 8 -2 17 0 18 4 4 212 125 216 126
1 0 2 -8 2 -18z m-102 -8 c-2 -9 -40 -38 -85 -64 -70 -41 -83 -46 -83 -30 0
12 25 33 78 64 85 50 95 53 90 30z m-223 -30 c-34 -27 -45 -30 -45 -10 0 14
61 49 70 39 3 -2 -8 -16 -25 -29z m95 13 c0 -14 -20 -37 -32 -37 -13 0 -9 38
5 43 21 9 27 7 27 -6z m-70 -41 c0 -8 -16 -23 -35 -35 -28 -16 -35 -17 -35 -6
0 9 15 24 33 35 38 24 37 24 37 6z m250 -20 c0 -12 -40 -46 -55 -46 -16 0 -2
39 18 48 30 15 37 14 37 -2z m-252 -38 c-3 -7 -19 -21 -36 -31 -28 -16 -32
-17 -32 -3 0 8 12 22 28 30 34 19 45 20 40 4z m182 -3 c0 -8 -20 -26 -43 -40
-51 -29 -57 -30 -57 -11 0 8 19 26 43 40 49 30 57 31 57 11z m-110 -10 c0 -8
-9 -19 -20 -25 -17 -9 -20 -8 -20 9 0 17 11 28 33 30 4 1 7 -6 7 -14z m-70
-38 c0 -7 -13 -20 -29 -30 -35 -20 -41 -21 -41 -4 0 10 44 40 68 46 1 1 2 -5
2 -12z m58 -38 c-19 -13 -28 -11 -28 6 0 21 34 38 38 18 2 -9 -2 -19 -10 -24z
m-61 -21 c-2 -7 -19 -21 -36 -31 -44 -26 -43 4 1 31 34 22 44 22 35 0z"/>
<path d="M3650 6650 l0 -80 285 0 285 0 0 80 0 80 -285 0 -285 0 0 -80z m111
36 c10 -20 8 -31 -11 -60 -25 -42 -30 -43 -50 -13 -24 36 -28 51 -19 75 12 32
65 31 80 -2z m429 -6 c0 -6 -55 -10 -145 -10 -90 0 -145 4 -145 10 0 6 55 10
145 10 90 0 145 -4 145 -10z m0 -40 c0 -6 -55 -10 -145 -10 -90 0 -145 4 -145
10 0 6 55 10 145 10 90 0 145 -4 145 -10z m0 -35 c0 -13 -27 -15 -184 -15
-168 0 -208 5 -189 24 3 3 89 6 190 6 156 0 183 -2 183 -15z"/>
<path d="M3715 6670 c-3 -5 -1 -10 4 -10 6 0 11 5 11 10 0 6 -2 10 -4 10 -3 0
-8 -4 -11 -10z"/>
<path d="M7691 6659 c-14 -40 -14 -39 3 -33 8 3 21 -5 30 -18 10 -14 16 -17
15 -8 -1 22 -17 58 -18 41 -1 -12 -4 -12 -13 -3 -10 10 -10 15 2 22 11 7 12
12 4 20 -9 9 -14 3 -23 -21z"/>
<path d="M7750 6621 c0 -22 5 -43 10 -46 6 -4 10 10 10 34 0 22 -4 43 -10 46
-6 4 -10 -10 -10 -34z"/>
<path d="M7780 6600 c0 -22 4 -40 9 -40 12 0 20 36 14 60 -9 34 -23 22 -23
-20z"/>
<path d="M7830 6588 c0 -19 -2 -20 -10 -8 -13 21 -12 6 2 -25 15 -34 28 -32
28 5 0 49 30 27 32 -24 l1 -41 4 38 c2 20 8 35 14 32 5 -4 9 -4 9 -1 0 5 -65
46 -74 46 -3 0 -6 -10 -6 -22z"/>
<path d="M7920 6520 c0 -31 5 -42 23 -51 22 -12 22 -12 3 10 -19 21 -19 21 0
21 18 1 18 1 2 11 -23 13 -24 33 -2 25 14 -5 15 -4 4 9 -21 25 -30 17 -30 -25z"/>
<path d="M7982 6485 c0 -39 2 -44 7 -21 l6 29 13 -37 c18 -48 32 -46 31 7 -1
34 -2 37 -8 17 -7 -25 -8 -24 -29 15 l-21 40 1 -50z"/>
<path d="M2346 6454 c-9 -8 -16 -26 -16 -40 0 -28 40 -95 54 -91 5 2 21 24 35
49 24 44 25 46 8 72 -20 30 -57 35 -81 10z m52 -37 c2 -10 -3 -17 -12 -17 -18
0 -29 16 -21 31 9 14 29 6 33 -14z"/>
<path d="M8059 6443 c-5 -14 -8 -31 -5 -37 3 -7 5 -6 5 2 1 19 41 -5 41 -25 0
-9 2 -14 5 -11 9 8 -16 98 -26 98 -5 0 -14 -12 -20 -27z m31 -14 c0 -5 -4 -9
-10 -9 -5 0 -10 7 -10 16 0 8 5 12 10 9 6 -3 10 -10 10 -16z"/>
<path d="M7010 6444 c-98 -20 -192 -51 -276 -89 -110 -50 -265 -155 -229 -155
2 0 45 26 94 59 113 74 213 116 370 156 128 33 157 53 41 29z"/>
<path d="M7335 6416 c81 -38 183 -113 220 -159 17 -22 25 -27 25 -16 0 34
-137 141 -236 185 -82 36 -89 29 -9 -10z"/>
<path d="M8121 6403 c1 -37 3 -42 8 -23 7 25 8 24 29 -15 l21 -40 -1 50 c0 41
-2 45 -7 20 l-7 -30 -13 37 c-19 56 -31 56 -30 1z"/>
<path d="M8194 6376 c-8 -21 24 -76 43 -76 14 0 13 3 -5 16 -12 8 -22 26 -22
40 0 27 9 30 30 12 12 -11 12 -10 1 5 -16 21 -40 22 -47 3z"/>
<path d="M2432 6324 c-18 -21 -32 -44 -32 -51 0 -17 -30 -5 -57 24 -12 13 -30
23 -40 22 -15 0 -14 -2 5 -11 27 -14 28 -29 2 -53 -11 -10 -20 -13 -20 -7 0 7
5 12 10 12 22 0 8 17 -26 32 -51 23 -78 9 -91 -47 l-10 -44 61 4 c34 2 81 9
106 15 25 6 59 9 75 7 31 -4 75 10 75 25 0 4 -13 8 -29 8 -28 0 -47 22 -35 41
3 5 37 9 77 9 70 0 71 0 47 17 -14 9 -29 22 -33 27 -6 8 -10 7 -14 -1 -6 -16
-30 -17 -35 -1 -2 6 -18 -6 -36 -28z m-172 -54 c0 -5 -4 -10 -10 -10 -5 0 -10
5 -10 10 0 6 5 10 10 10 6 0 10 -4 10 -10z"/>
<path d="M8260 6322 c0 -27 6 -41 21 -50 12 -7 23 -11 26 -8 3 3 -2 8 -11 12
-9 3 -16 13 -16 21 0 8 5 11 13 7 10 -6 10 -4 0 7 -18 19 -16 32 5 25 14 -5
14 -4 -2 9 -30 23 -36 19 -36 -23z"/>
<path d="M2618 6270 c-30 -18 -41 -72 -24 -121 9 -25 12 -47 6 -53 -10 -10 -2
-36 11 -36 5 0 9 7 9 15 0 18 12 19 27 4 23 -23 43 -2 43 46 0 33 4 45 15 45
8 0 15 -4 15 -10 0 -5 5 -10 11 -10 6 0 8 7 5 16 -3 9 2 29 11 46 18 29 18 30
-6 49 -25 21 -94 26 -123 9z"/>
<path d="M7340 6235 c-178 -48 -329 -127 -479 -252 -2 -1 -2 -6 2 -9 3 -3 47
25 99 62 116 84 245 146 374 180 106 28 110 29 97 37 -4 2 -46 -6 -93 -18z"/>
<path d="M7445 6190 c-248 -47 -460 -155 -582 -298 -98 -113 -239 -310 -230
-319 3 -3 28 8 56 24 42 23 52 34 57 63 19 105 142 261 281 358 17 12 33 22
36 22 8 0 27 -97 27 -141 l0 -40 30 16 c16 8 37 15 47 15 16 0 315 173 351
203 36 29 63 119 35 116 -4 0 -53 -9 -108 -19z m90 -11 c9 -13 -41 -89 -58
-89 -17 0 -90 61 -82 69 5 5 52 16 127 30 4 0 10 -4 13 -10z m-165 -47 c16
-13 23 -30 24 -57 l1 -39 -115 -68 c-63 -37 -118 -68 -122 -68 -5 0 -8 15 -8
33 -1 17 -9 56 -19 84 l-18 53 76 29 c155 58 151 58 181 33z"/>
<path d="M2449 6170 c4 -14 30 -40 57 -58 44 -30 46 -31 18 -5 -17 15 -43 42
-58 58 -25 29 -26 29 -17 5z"/>
<path d="M7488 6049 c21 -22 15 -87 -12 -122 -27 -37 -49 -77 -42 -77 3 0 12
12 20 28 8 15 24 37 36 50 17 18 20 32 18 74 -2 35 -8 53 -18 56 -12 4 -13 2
-2 -9z"/>
<path d="M7574 5984 c-21 -15 -45 -34 -52 -43 -37 -47 -62 -94 -62 -118 l1
-28 14 25 c8 14 14 35 15 47 0 14 11 27 32 37 40 20 50 20 46 -1 -2 -12 17
-29 62 -55 36 -21 68 -38 71 -38 13 0 30 93 23 124 -16 76 -80 97 -150 50z"/>
<path d="M6114 5926 c-3 -8 -4 -23 -2 -32 5 -29 173 -149 290 -209 120 -61
161 -68 199 -34 l24 21 -25 -16 c-36 -23 -47 -21 -158 34 -167 81 -331 202
-318 235 3 8 3 15 0 15 -2 0 -7 -6 -10 -14z"/>
<path d="M7525 5859 c-4 -6 -5 -13 -2 -16 7 -7 27 6 27 18 0 12 -17 12 -25 -2z"/>
<path d="M7405 5788 c-8 -28 -15 -63 -14 -77 0 -14 7 1 14 34 7 33 16 68 20
78 4 9 5 17 1 17 -3 0 -12 -23 -21 -52z"/>
<path d="M4320 5790 c0 -44 4 -48 26 -25 9 8 11 15 5 15 -6 0 -11 7 -11 15 0
9 6 12 18 9 14 -5 14 -3 -2 10 -30 24 -36 20 -36 -24z"/>
<path d="M4570 5786 c0 -25 2 -46 4 -46 2 0 13 -3 23 -6 16 -6 16 -5 -2 9 -17
14 -18 18 -5 27 10 6 11 10 3 10 -7 0 -13 7 -13 15 0 9 6 12 18 8 18 -7 17 -5
-10 16 -17 12 -18 10 -18 -33z"/>
<path d="M6945 5769 c-44 -26 -84 -50 -90 -52 -5 -2 -7 -8 -3 -12 7 -8 163 79
174 97 13 20 -4 14 -81 -33z"/>
<path d="M4382 5769 c-2 -42 18 -75 42 -66 17 7 23 67 6 67 -5 0 -10 -14 -10
-31 0 -26 -2 -29 -14 -19 -8 6 -17 28 -19 48 l-4 37 -1 -36z"/>
<path d="M4620 5756 c0 -19 5 -38 10 -41 6 -3 10 1 10 10 0 10 5 14 13 9 10
-6 10 -4 0 7 -18 19 -16 32 3 25 14 -5 15 -4 4 9 -22 26 -40 18 -40 -19z"/>
<path d="M7830 5783 c0 -4 5 -15 10 -23 7 -11 10 -11 10 -2 0 7 5 10 11 6 7
-4 10 -1 7 7 -5 15 -38 26 -38 12z"/>
<path d="M4450 5716 c0 -31 5 -46 16 -50 9 -4 19 -4 22 -1 3 2 -3 7 -12 11 -9
3 -16 11 -16 16 0 6 8 7 17 4 16 -6 16 -6 0 12 -21 23 -22 33 -2 26 22 -9 18
4 -5 16 -19 10 -20 8 -20 -34z"/>
<path d="M4681 5718 c0 -24 3 -37 6 -30 2 6 12 12 21 12 15 1 15 2 0 11 -26
14 -22 32 5 24 21 -6 21 -6 3 9 -30 24 -36 20 -35 -26z"/>
<path d="M4743 5685 c0 -27 2 -38 4 -22 2 15 2 37 0 50 -2 12 -4 0 -4 -28z"/>
<path d="M4512 5683 c-2 -33 2 -45 18 -53 11 -6 20 -7 20 -1 0 5 -6 11 -14 14
-8 3 -17 23 -19 44 l-4 38 -1 -42z"/>
<path d="M8035 5713 c-57 -15 -130 -103 -141 -170 -3 -21 -8 -41 -11 -46 -5
-8 8 -13 59 -22 37 -6 37 -5 49 37 15 59 87 131 125 126 57 -6 52 -105 -8
-174 -42 -48 -67 -56 -128 -43 -78 17 -90 8 -31 -24 83 -46 145 -24 205 71 33
53 42 88 26 107 -11 13 -11 20 0 39 16 30 9 41 -48 77 -45 29 -58 31 -97 22z"/>
<path d="M4764 5686 c-6 -16 12 -56 30 -68 22 -15 30 -8 8 8 -12 8 -22 26 -22
40 0 27 9 30 30 12 12 -11 12 -10 1 5 -16 21 -40 22 -47 3z"/>
<path d="M4581 5638 c1 -36 2 -39 9 -18 l7 25 8 -27 c8 -32 19 -36 31 -10 6
13 9 10 14 -18 l7 -35 2 42 c1 43 -12 65 -23 38 -9 -24 -23 -18 -35 15 -14 42
-21 37 -20 -12z"/>
<path d="M7323 5644 c-35 -19 -63 -38 -63 -41 0 -5 109 54 125 68 16 16 1 9
-62 -27z"/>
<path d="M4843 5630 c0 -25 2 -35 4 -22 2 12 2 32 0 45 -2 12 -4 2 -4 -23z"/>
<path d="M4862 5614 c2 -26 10 -41 28 -53 25 -15 25 -15 8 5 -20 22 -24 39 -8
29 6 -3 10 -1 10 4 0 6 -4 11 -10 11 -5 0 -10 5 -10 11 0 6 7 9 15 5 8 -3 15
-1 15 3 0 9 -24 21 -41 21 -6 0 -9 -16 -7 -36z"/>
<path d="M4682 5595 c-16 -34 -15 -46 2 -39 8 3 22 -5 31 -18 l17 -23 -6 27
c-8 34 -24 78 -29 78 -2 0 -9 -11 -15 -25z m28 -26 c0 -6 -4 -7 -10 -4 -5 3
-10 11 -10 16 0 6 5 7 10 4 6 -3 10 -11 10 -16z"/>
<path d="M4921 5578 c1 -35 2 -38 8 -18 7 25 8 24 29 -15 l21 -40 0 45 c-1 34
-3 39 -8 20 -7 -24 -7 -24 -20 8 -20 48 -31 48 -30 0z"/>
<path d="M8065 5600 c-10 -11 -16 -22 -13 -25 3 -3 13 4 23 15 10 11 16 22 13
25 -3 3 -13 -4 -23 -15z"/>
<path d="M6720 5605 c0 -6 4 -15 9 -20 5 -6 11 -19 14 -30 5 -20 5 -19 6 1 0
11 -6 29 -14 40 -8 10 -15 14 -15 9z"/>
<path d="M8106 5594 c-10 -26 -7 -34 15 -34 15 0 19 4 15 16 -3 9 -6 20 -6 25
0 15 -17 10 -24 -7z"/>
<path d="M4741 5548 c1 -35 2 -38 8 -18 7 25 8 24 29 -15 l21 -40 0 45 c-1 34
-3 39 -8 20 -7 -24 -7 -24 -20 8 -20 48 -31 48 -30 0z"/>
<path d="M1751 5566 c-13 -15 -57 -29 -99 -30 -19 -1 -28 -15 -55 -82 -31 -76
-33 -86 -26 -155 4 -41 8 -143 8 -226 1 -151 1 -153 26 -169 19 -12 41 -15 87
-12 54 4 64 8 90 37 21 23 28 40 24 55 -3 11 -11 77 -17 146 -9 96 -8 141 1
195 27 151 25 190 -8 233 -16 21 -20 22 -31 8z"/>
<path d="M4998 5568 c7 -7 12 -27 12 -45 0 -18 5 -33 10 -33 6 0 10 14 10 31
0 21 4 28 13 24 6 -4 1 3 -12 14 -25 23 -54 30 -33 9z"/>
<path d="M8010 5520 c-6 -12 -9 -24 -7 -27 3 -2 11 5 17 17 6 12 9 24 7 27 -3
2 -11 -5 -17 -17z"/>
<path d="M8060 5525 c0 -8 5 -15 10 -15 6 0 10 7 10 15 0 8 -4 15 -10 15 -5 0
-10 -7 -10 -15z"/>
<path d="M4825 5500 c-10 -19 -12 -30 -4 -30 6 0 13 9 16 21 4 16 8 17 14 7 7
-10 9 -9 9 4 0 30 -19 29 -35 -2z"/>
<path d="M6753 5465 c0 -38 2 -53 4 -32 2 20 2 52 0 70 -2 17 -4 1 -4 -38z"/>
<path d="M8092 5508 c-14 -14 -16 -42 -2 -33 14 9 32 45 22 45 -4 0 -13 -5
-20 -12z"/>
<path d="M4892 5488 c-7 -7 -12 -17 -12 -24 0 -18 40 -64 56 -64 19 0 15 32
-5 38 -9 3 -11 0 -6 -8 5 -8 3 -11 -6 -8 -15 5 -26 58 -12 58 5 0 14 -5 21
-12 9 -9 12 -9 12 0 0 19 -35 33 -48 20z"/>
<path d="M4857 5456 c21 -28 24 -28 16 2 -3 12 -12 22 -20 22 -11 0 -10 -5 4
-24z"/>
<path d="M5805 5453 c-3 -14 -3 -32 0 -42 11 -35 255 -191 298 -191 9 0 23 13
31 28 l14 28 -75 38 c-41 21 -117 67 -168 101 -93 62 -93 63 -100 38z"/>
<path d="M6967 5435 c-42 -25 -77 -48 -77 -51 0 -3 15 3 33 14 17 11 53 32 80
47 40 23 55 35 44 35 -1 0 -37 -20 -80 -45z"/>
<path d="M4960 5420 c0 -29 5 -42 20 -50 11 -6 20 -7 20 -1 0 5 -7 11 -15 15
-21 8 -19 27 3 20 16 -5 16 -5 0 9 -22 17 -23 31 -3 23 8 -3 15 -1 15 3 0 8
-23 21 -36 21 -2 0 -4 -18 -4 -40z"/>
<path d="M6593 5419 c-72 -35 -136 -135 -149 -232 -6 -44 -5 -46 34 -72 32
-21 47 -25 76 -20 43 8 90 49 82 71 -5 13 -10 13 -33 -4 -47 -33 -69 -36 -87
-10 -18 26 -21 66 -5 88 9 12 10 11 6 -7 -4 -19 -2 -20 13 -10 13 8 28 8 53 0
l34 -10 -11 29 c-6 16 -12 24 -14 19 -4 -12 -62 14 -62 27 0 5 12 20 28 34 58
54 97 58 109 10 7 -28 43 -63 55 -55 14 8 9 93 -7 122 -24 47 -57 52 -122 20z"/>
<path d="M5021 5390 c0 -32 3 -39 8 -25 8 19 8 19 15 -3 6 -18 11 -21 21 -12
11 9 14 5 18 -17 3 -20 4 -16 6 15 1 43 -11 56 -24 25 -6 -15 -11 -10 -25 22
l-19 40 0 -45z"/>
<path d="M5110 5336 c0 -25 2 -46 4 -46 2 0 13 -3 23 -6 16 -6 16 -5 -2 9 -16
13 -17 18 -6 26 9 6 10 11 2 15 -18 11 -13 26 7 19 18 -7 17 -5 -10 16 -17 12
-18 10 -18 -33z"/>
<path d="M6751 5343 c-1 -35 2 -41 15 -36 9 3 11 8 6 12 -6 3 -12 20 -15 36
-3 24 -4 22 -6 -12z"/>
<path d="M6790 5336 c0 -9 4 -15 9 -12 5 4 12 -7 16 -23 8 -40 34 -48 57 -19
24 31 23 33 -12 34 -17 1 -39 9 -50 19 -19 17 -20 17 -20 1z"/>
<path d="M5160 5306 c0 -19 4 -37 9 -40 10 -7 21 42 14 61 -10 25 -23 13 -23
-21z"/>
<path d="M6577 5320 c-3 -11 -1 -20 4 -20 4 0 13 9 19 20 8 16 8 20 -3 20 -8
0 -17 -9 -20 -20z"/>
<path d="M6626 5323 c-11 -12 -6 -41 9 -47 11 -4 15 1 15 19 0 25 -12 39 -24
28z"/>
<path d="M5210 5293 c0 -15 -2 -16 -10 -3 -15 24 -12 2 5 -30 21 -40 25 -38
25 10 0 22 -4 40 -10 40 -5 0 -10 -8 -10 -17z"/>
<path d="M5248 5288 c7 -7 13 -28 14 -47 l1 -36 4 33 c2 17 9 32 16 32 13 0
-24 29 -37 30 -6 0 -5 -5 2 -12z"/>
<path d="M6630 5244 c0 -15 49 -59 57 -50 10 10 -13 42 -28 38 -7 -2 -16 3
-20 10 -5 7 -9 8 -9 2z"/>
<path d="M6531 5186 c-9 -11 -8 -15 5 -20 20 -8 34 1 34 20 0 18 -24 18 -39 0z"/>
<path d="M7747 5133 c-9 -16 11 -105 27 -121 15 -15 16 -14 16 20 0 20 -4 40
-10 43 -5 3 -10 19 -10 36 0 27 -13 39 -23 22z"/>
<path d="M6917 4925 c-4 -8 -24 -23 -46 -35 -40 -20 -76 -27 -68 -12 3 4 -6 7
-19 7 l-24 0 0 -223 0 -222 -26 6 c-39 10 -28 -24 16 -47 48 -26 90 -25 90 1
0 15 7 20 24 20 14 0 28 5 31 10 3 6 8 81 10 168 3 105 9 173 19 206 9 27 16
66 16 87 0 39 -14 60 -23 34z"/>
<path d="M1725 4860 c-13 -25 -20 -29 -40 -24 -20 5 -27 0 -45 -35 -18 -36
-24 -41 -56 -41 -45 0 -41 -21 5 -34 23 -7 39 -6 52 2 12 8 19 8 19 2 0 -5 5
-10 10 -10 6 0 10 9 10 19 0 12 12 26 30 35 17 8 30 10 30 5 0 -5 4 -9 8 -9
11 0 35 87 28 105 -9 25 -34 17 -51 -15z"/>
<path d="M7902 4874 c4 -20 92 -58 115 -50 16 7 15 9 -6 26 -14 10 -30 16 -38
13 -7 -3 -26 2 -43 11 -28 13 -31 14 -28 0z"/>
<path d="M4576 4771 c-10 -15 -9 -272 1 -282 5 -5 53 0 113 12 58 12 116 23
129 26 21 4 10 13 -69 59 -119 69 -141 68 -137 -7 2 -27 -1 -53 -6 -56 -21
-13 -27 28 -21 140 6 108 4 131 -10 108z"/>
<path d="M4530 4756 c0 -5 -2 -65 -5 -132 -2 -68 -1 -134 5 -146 5 -13 9 -21
10 -18 7 44 7 279 0 290 -5 8 -10 11 -10 6z"/>
<path d="M4484 4650 c3 -47 6 -111 6 -142 0 -37 4 -58 11 -58 15 0 3 246 -12
269 -7 11 -9 -10 -5 -69z"/>
<path d="M4436 4608 c6 -118 14 -181 21 -174 7 7 5 140 -3 214 -10 87 -23 58
-18 -40z"/>
<path d="M4660 4480 c-117 -31 -180 -55 -272 -101 -90 -45 -218 -131 -218
-146 0 -7 2 -13 3 -13 2 0 42 25 88 57 141 95 287 156 464 195 50 10 94 23
100 29 17 17 -59 8 -165 -21z"/>
<path d="M4960 4449 c208 -120 255 -152 234 -160 -10 -3 -68 -21 -129 -39 -60
-17 -143 -47 -184 -66 -121 -56 -326 -201 -309 -219 3 -4 35 15 70 42 158 121
305 194 477 235 51 12 95 28 98 35 4 10 10 9 26 -1 12 -8 48 -16 80 -19 50 -5
57 -3 57 12 0 38 -138 147 -262 206 -67 32 -80 35 -168 35 l-95 0 105 -61z"/>
<path d="M4035 4304 c-106 -60 -131 -78 -133 -98 -2 -17 4 -30 21 -41 23 -15
28 -13 140 62 115 76 117 78 117 115 0 21 -3 38 -7 37 -5 0 -66 -34 -138 -75z"/>
<path d="M5245 4219 c-108 -20 -194 -43 -291 -81 -232 -88 -353 -194 -559
-486 -77 -110 -83 -115 -156 -152 -80 -41 -124 -79 -174 -149 -75 -107 -88
-171 -16 -78 54 71 118 120 259 198 125 69 130 68 133 -6 1 -22 4 -88 8 -146
l6 -106 355 209 355 208 15 73 c19 86 49 155 90 207 19 24 30 49 30 70 0 27
12 44 68 99 58 57 95 111 74 111 -3 0 -30 -19 -61 -42 -94 -72 -98 -75 -67
-38 28 34 56 88 56 110 0 12 -55 11 -125 -1z m45 -234 c0 -14 -16 -46 -37 -72
-47 -63 -72 -119 -87 -201 l-12 -67 -113 -68 c-62 -38 -114 -67 -116 -65 -2 2
-6 68 -10 148 l-7 145 184 102 c100 56 186 102 191 102 4 1 7 -10 7 -24z
m-390 -344 l0 -148 -215 -127 c-118 -69 -216 -126 -218 -126 -3 0 -7 62 -10
138 -2 75 -8 144 -11 152 -4 11 48 45 212 137 119 66 223 121 230 122 9 1 12
-35 12 -148z"/>
<path d="M4010 4163 c-134 -95 -280 -234 -280 -268 0 -46 163 -167 357 -264
57 -28 116 -51 131 -51 56 0 124 65 265 254 37 49 67 96 67 105 0 10 -30 35
-72 60 -40 24 -134 82 -209 128 -90 55 -146 83 -165 83 -18 -1 -54 -18 -94
-47z"/>
<path d="M5621 4081 c-14 -11 -20 -21 -13 -25 6 -3 13 0 15 6 4 10 8 9 16 -2
9 -12 11 -10 11 13 0 32 1 31 -29 8z"/>
<path d="M7293 4025 c0 -27 2 -38 4 -22 2 15 2 37 0 50 -2 12 -4 0 -4 -28z"/>
<path d="M7313 4023 c-9 -23 19 -67 45 -71 18 -3 22 1 22 22 0 18 4 24 15 20
10 -4 16 -21 17 -48 l1 -41 4 38 c3 25 8 35 16 31 7 -3 1 4 -12 15 -13 12 -29
21 -36 21 -7 0 -18 7 -25 15 -16 20 -39 19 -47 -2z m53 -30 c7 -28 3 -36 -19
-28 -16 7 -26 33 -20 52 7 19 33 3 39 -24z"/>
<path d="M5405 3991 c-97 -44 -185 -183 -185 -292 0 -24 6 -41 15 -47 13 -7
12 -10 -10 -20 l-25 -12 0 -212 0 -213 147 -85 c80 -47 154 -89 164 -94 13 -6
50 10 146 64 70 40 136 80 146 88 16 14 18 37 17 231 0 119 1 241 2 271 3 45
0 54 -12 51 -8 -2 -33 -3 -55 -3 -27 0 -53 -9 -78 -26 l-39 -26 24 -18 23 -18
-24 -19 c-13 -10 -47 -31 -75 -46 l-52 -28 -94 55 -95 55 2 46 c1 43 0 45 -18
34 -21 -13 -25 -27 -7 -27 9 0 9 -3 1 -11 -36 -36 -45 60 -12 128 41 85 133
132 160 82 11 -21 8 -79 -7 -126 -4 -16 -2 -23 7 -23 10 0 15 18 17 62 1 41 9
74 23 97 25 42 19 73 -16 89 -34 16 -43 15 -90 -7z"/>
<path d="M6660 3743 l0 -250 737 -426 c406 -234 739 -424 741 -423 4 4 4 498
0 501 -11 8 -1452 837 -1463 842 -13 4 -15 -30 -15 -244z m95 113 c11 -8 16
-16 12 -16 -14 0 -67 33 -67 43 0 9 24 -3 55 -27z m-35 -110 c0 -81 3 -97 22
-122 l22 -29 -23 20 -23 20 4 -40 4 -40 499 -283 c275 -155 580 -328 679 -384
125 -70 174 -103 165 -109 -8 -5 -18 -9 -24 -9 -5 0 -4 4 4 9 11 7 0 16 -40
37 -72 38 -73 39 -64 24 5 -9 4 -11 -4 -6 -6 4 -9 11 -7 15 7 11 -93 63 -106
55 -6 -4 -8 -3 -5 4 4 6 -38 35 -102 71 -115 64 -127 69 -115 49 4 -8 3 -10
-2 -5 -5 5 -9 13 -9 18 0 16 -548 320 -556 308 -5 -8 -8 -8 -13 0 -4 6 -1 11
6 11 7 0 -9 14 -37 30 -27 16 -56 28 -63 25 -7 -3 -11 -1 -8 3 7 12 -104 73
-116 65 -6 -3 -8 -2 -5 3 3 6 -17 22 -44 37 -27 16 -49 36 -50 45 -1 9 -2 69
-3 132 -1 63 -5 121 -9 128 -5 8 -3 12 7 12 13 0 16 -15 16 -94z m120 64 c13
-11 19 -20 14 -20 -13 1 -61 40 -48 40 6 0 21 -9 34 -20z m-85 -130 c10 -11
16 -20 13 -20 -3 0 -13 9 -23 20 -10 11 -16 20 -13 20 3 0 13 -9 23 -20z m55
-65 c19 -19 32 -35 29 -35 -3 0 -20 16 -39 35 -19 19 -32 35 -29 35 3 0 20
-16 39 -35z m-5 -55 c10 -11 16 -20 13 -20 -3 0 -13 9 -23 20 -10 11 -16 20
-13 20 3 0 13 -9 23 -20z m65 -46 c0 -2 -9 0 -20 6 -11 6 -20 13 -20 16 0 2 9
0 20 -6 11 -6 20 -13 20 -16z m66 -32 c-3 -2 -13 1 -23 7 -10 6 -14 11 -9 11
5 0 2 8 -5 18 -7 9 -1 6 14 -7 15 -14 25 -26 23 -29z m34 -12 c0 -5 7 -7 15
-4 8 4 15 4 15 1 0 -13 -30 -14 -40 -1 -9 10 -9 14 -1 14 6 0 11 -4 11 -10z
m97 -16 c-3 -3 -12 -4 -19 -1 -8 3 -5 6 6 6 11 1 17 -2 13 -5z m-37 -30 c0 -2
-9 0 -20 6 -11 6 -20 13 -20 16 0 2 9 0 20 -6 11 -6 20 -13 20 -16z m171 -51
l24 -28 -30 25 c-16 14 -32 26 -34 28 -2 1 0 2 6 2 5 0 20 -12 34 -27z m114
-3 c3 -6 -1 -7 -9 -4 -18 7 -21 14 -7 14 6 0 13 -4 16 -10z m65 -47 c0 -7 -39
17 -46 28 -3 6 5 3 20 -6 14 -10 26 -19 26 -22z m-125 7 c10 -11 16 -20 13
-20 -3 0 -13 9 -23 20 -10 11 -16 20 -13 20 3 0 13 -9 23 -20z m128 -67 c-7
-2 -19 -2 -25 0 -7 3 -2 5 12 5 14 0 19 -2 13 -5z m94 -11 c-23 -3 -26 -6 -16
-18 19 -23 5 -16 -19 9 l-21 22 42 -4 c34 -4 37 -6 14 -9z m69 -18 c18 -14 18
-14 -6 -3 -31 14 -36 19 -24 19 6 0 19 -7 30 -16z m-45 -31 c13 -16 12 -17 -3
-4 -10 7 -18 15 -18 17 0 8 8 3 21 -13z m169 -67 l25 -31 -36 30 c-20 17 -42
38 -48 49 -12 17 -12 17 11 0 13 -9 34 -31 48 -48z m185 -58 c19 -22 19 -22
-10 2 -48 40 -51 43 -30 32 11 -6 29 -21 40 -34z m-89 -30 l29 -33 -32 29
c-31 28 -38 36 -30 36 2 0 16 -15 33 -32z m160 -30 l29 -33 -32 29 c-18 17
-33 31 -33 33 0 8 8 1 36 -29z m-76 -35 c0 -7 -39 17 -46 28 -3 6 5 3 20 -6
14 -10 26 -19 26 -22z m35 -21 c-3 -3 -11 0 -18 7 -9 10 -8 11 6 5 10 -3 15
-9 12 -12z m136 -49 c29 -33 30 -34 3 -10 -16 15 -41 27 -55 28 -22 0 -22 1
-4 9 11 5 20 9 21 9 0 1 16 -16 35 -36z"/>
<path d="M7470 3920 c0 -38 18 -60 49 -60 20 0 11 56 -12 78 -32 30 -37 28
-37 -18z m43 -2 c6 -8 7 -23 3 -33 -9 -24 -36 -1 -36 32 0 27 17 27 33 1z"/>
<path d="M7552 3885 c-16 -34 -15 -46 2 -39 8 3 21 -5 31 -18 l16 -23 -7 30
c-9 37 -22 75 -27 75 -2 0 -9 -11 -15 -25z m28 -26 c0 -6 -4 -7 -10 -4 -5 3
-10 11 -10 16 0 6 5 7 10 4 6 -3 10 -11 10 -16z"/>
<path d="M5375 3882 c-16 -11 -18 -42 -3 -37 21 8 42 45 26 45 -7 0 -17 -4
-23 -8z"/>
<path d="M5424 3866 c-3 -14 -3 -30 1 -36 11 -18 34 7 28 31 -8 30 -22 33 -29
5z"/>
<path d="M7600 3880 c0 -5 5 -10 10 -10 6 0 11 -19 11 -42 2 -35 3 -37 6 -13
3 16 9 33 14 36 6 3 -1 13 -15 23 -14 9 -26 12 -26 6z"/>
<path d="M7667 3823 c-2 -10 -8 -26 -12 -36 -6 -14 -4 -16 10 -11 12 5 24 -1
36 -17 19 -24 19 -23 4 26 -8 28 -15 51 -15 53 0 10 -19 -2 -23 -15z"/>
<path d="M5320 3804 c0 -11 -5 -25 -11 -31 -6 -6 -9 -17 -7 -25 3 -8 12 0 22
21 13 24 15 36 7 44 -8 8 -11 5 -11 -9z"/>
<path d="M7756 3761 c-20 -38 -20 -45 1 -37 11 5 23 -1 35 -16 17 -22 17 -21
3 26 -8 27 -17 51 -19 54 -3 2 -12 -10 -20 -27z m24 -11 c0 -5 -5 -10 -11 -10
-5 0 -7 5 -4 10 3 6 8 10 11 10 2 0 4 -4 4 -10z"/>
<path d="M7821 3720 c1 -34 3 -39 8 -20 7 24 7 24 20 -8 20 -48 31 -48 30 0
-1 35 -2 38 -8 18 -7 -25 -8 -24 -29 15 l-21 40 0 -45z"/>
<path d="M5540 3730 c0 -12 34 -30 57 -30 13 0 10 5 -12 20 -33 22 -45 25 -45
10z"/>
<path d="M7900 3674 c-12 -32 -12 -37 0 -29 5 3 18 -3 30 -15 23 -23 24 -21 8
31 -13 45 -25 49 -38 13z m30 -14 c0 -5 -2 -10 -4 -10 -3 0 -8 5 -11 10 -3 6
-1 10 4 10 6 0 11 -4 11 -10z"/>
<path d="M7960 3637 c0 -33 15 -57 34 -57 6 0 5 5 -2 12 -7 7 -12 27 -12 45 0
18 -4 33 -10 33 -5 0 -10 -15 -10 -33z"/>
<path d="M8014 3604 c11 -48 23 -57 28 -21 5 36 33 27 36 -13 4 -46 22 -64 22
-23 0 17 5 33 12 35 6 2 -6 14 -28 27 -24 14 -40 19 -42 12 -5 -16 -22 -13
-22 3 0 8 -4 17 -8 20 -4 3 -3 -15 2 -40z"/>
<path d="M8133 3540 c0 -25 2 -35 4 -22 2 12 2 32 0 45 -2 12 -4 2 -4 -23z"/>
<path d="M8160 3522 c0 -27 26 -62 46 -62 4 0 -2 7 -14 16 -12 8 -22 26 -22
40 0 27 9 30 29 12 11 -11 13 -10 9 2 -3 8 -14 16 -26 18 -18 3 -22 -2 -22
-26z"/>
<path d="M6010 3219 c-1 -319 -2 -332 -45 -340 -27 -5 -33 -85 -10 -128 22
-44 85 -39 85 7 0 18 27 45 32 32 2 -6 34 6 72 26 41 21 77 33 89 30 11 -3 29
-1 39 5 10 5 18 7 18 4 0 -12 -59 -65 -72 -65 -7 0 -26 -16 -41 -35 -23 -29
-25 -36 -13 -41 10 -4 16 -18 16 -36 0 -33 24 -84 42 -90 26 -9 49 5 55 32 3
17 13 30 25 33 14 4 18 2 14 -9 -4 -9 25 -31 92 -70 53 -32 143 -84 200 -117
56 -33 102 -63 102 -67 0 -4 -7 -11 -16 -14 -13 -5 -14 -9 -4 -21 9 -11 17
-12 34 -4 20 11 20 10 5 -6 -16 -16 -18 -16 -42 0 -24 15 -27 15 -45 -2 -10
-10 -25 -19 -33 -21 -21 -5 -32 -19 -24 -32 4 -6 14 -9 23 -5 9 3 13 3 9 -1
-10 -10 53 -46 69 -40 8 3 13 1 11 -5 -1 -6 14 -20 35 -32 152 -91 240 -137
250 -131 6 4 8 3 5 -4 -4 -6 21 -26 60 -48 66 -37 67 -37 97 -20 28 16 30 16
45 0 15 -16 15 -17 -1 -5 -13 10 -21 10 -37 -1 -26 -16 -26 -25 -1 -33 22 -7
60 2 60 15 0 4 12 11 26 14 17 5 24 12 20 21 -3 9 0 12 9 9 7 -3 34 7 60 21
44 27 45 28 25 42 -11 8 -25 11 -30 8 -6 -3 -10 -4 -10 -1 0 3 10 10 21 17 14
7 19 7 15 0 -11 -17 31 -33 54 -21 11 6 19 14 16 18 -2 4 7 8 20 8 23 2 157
-72 722 -399 l182 -106 -2 380 -3 380 -297 172 c-247 143 -298 176 -300 196
-3 20 -71 63 -438 272 -239 137 -438 249 -442 249 -4 0 -8 -50 -8 -111 0 -90
-3 -110 -14 -106 -7 3 -101 56 -207 118 -107 62 -284 164 -394 227 -110 63
-206 119 -212 125 -10 7 -13 -53 -13 -294z m245 3 c-3 -3 -11 0 -18 7 -9 10
-8 11 6 5 10 -3 15 -9 12 -12z m1465 -484 c0 -3 -66 32 -147 79 -82 47 -154
88 -160 90 -10 4 -13 -60 -13 -301 0 -168 -2 -306 -5 -306 -3 0 -116 64 -250
142 l-245 141 0 214 c0 181 -2 215 -15 219 -12 5 -15 27 -15 109 l0 104 425
-242 c233 -133 424 -245 425 -249z m-1557 459 c17 -6 24 -27 10 -27 -15 1 -43
28 -43 41 0 9 3 10 8 3 4 -6 15 -13 25 -17z m47 -27 c0 -5 -4 -10 -10 -10 -5
0 -10 5 -10 10 0 6 5 10 10 10 6 0 10 -4 10 -10z m51 -106 c37 -35 67 -108 75
-180 l7 -59 -30 27 c-16 15 -34 47 -40 70 -7 24 -23 54 -37 67 l-25 24 -12
-27 c-9 -20 -10 -35 -1 -63 10 -31 9 -42 -5 -62 l-16 -25 -20 44 c-28 63 -29
170 -2 200 25 27 68 21 106 -16z m154 -14 c-3 -5 0 -10 7 -10 20 0 54 -27 46
-35 -9 -10 -68 27 -68 42 0 7 5 13 11 13 5 0 7 -4 4 -10z m72 -62 c-3 -8 -6
-5 -6 6 -1 11 2 17 5 13 3 -3 4 -12 1 -19z m193 -8 c0 -5 -2 -10 -4 -10 -3 0
-8 5 -11 10 -3 6 -1 10 4 10 6 0 11 -4 11 -10z m30 -16 c0 -8 -4 -12 -10 -9
-5 3 -10 10 -10 16 0 5 5 9 10 9 6 0 10 -7 10 -16z m30 -14 c0 -5 -2 -10 -4
-10 -3 0 -8 5 -11 10 -3 6 -1 10 4 10 6 0 11 -4 11 -10z m-276 -25 c4 -13 2
-14 -14 -5 -23 13 -26 20 -6 20 8 0 16 -7 20 -15z m299 -84 c9 -8 15 -16 13
-18 -7 -7 -61 21 -82 44 -12 12 -25 19 -28 16 -3 -4 -6 1 -6 10 0 15 7 13 43
-10 23 -15 50 -34 60 -42z m-343 18 c0 -11 -4 -17 -10 -14 -5 3 -10 15 -10 26
0 11 5 17 10 14 6 -3 10 -15 10 -26z m60 -30 c0 -5 7 -9 15 -9 8 0 15 -7 15
-15 0 -11 -7 -10 -35 6 -38 23 -47 40 -15 32 11 -3 20 -9 20 -14z m-50 -55 c0
-8 -7 -14 -15 -14 -8 0 -15 9 -15 20 0 13 5 18 15 14 8 -4 15 -12 15 -20z
m304 0 c9 -3 16 -12 16 -20 0 -17 -26 -8 -34 12 -6 16 -4 17 18 8z m-245 -38
c11 2 51 -28 51 -38 0 -5 -22 3 -50 19 -27 15 -50 34 -50 42 0 11 5 9 21 -5
12 -10 24 -19 28 -18z m1099 -83 c17 -9 32 -21 32 -26 0 -4 -26 6 -57 24 -87
49 -93 53 -93 62 0 4 19 -4 43 -18 23 -14 57 -34 75 -42z m-834 11 c4 -12 2
-12 -14 -4 -11 6 -20 15 -20 20 0 14 28 1 34 -16z m-244 -36 c0 -5 -13 -1 -30
9 -16 9 -30 23 -30 30 0 9 10 6 30 -9 17 -12 30 -26 30 -30z m980 -19 c0 -6
-4 -7 -10 -4 -5 3 -10 11 -10 16 0 6 5 7 10 4 6 -3 10 -11 10 -16z m82 -39 c6
0 9 -3 6 -6 -9 -8 -48 14 -48 27 0 6 7 3 16 -5 8 -9 20 -16 26 -16z m-812 4
c0 -8 -4 -12 -10 -9 -5 3 -10 10 -10 16 0 5 5 9 10 9 6 0 10 -7 10 -16z m448
-179 l192 -110 0 -57 c0 -62 -1 -64 -29 -46 -21 13 -56 4 -45 -13 4 -8 0 -8
-15 0 -25 14 -27 19 -5 17 9 0 18 4 21 9 4 13 -51 47 -61 38 -3 -3 -6 -2 -6 3
0 15 -59 46 -72 38 -6 -4 -8 -3 -5 3 8 13 -50 46 -70 39 -13 -5 -13 -9 -2 -24
13 -15 12 -16 -3 -4 -9 8 -23 11 -30 7 -7 -3 -3 2 10 11 30 22 28 29 -10 45
-18 7 -35 16 -38 19 -3 4 -35 24 -72 44 l-68 38 0 59 0 60 58 -33 c32 -18 144
-82 250 -143z m422 140 c11 -13 10 -14 -4 -9 -9 3 -16 10 -16 15 0 13 6 11 20
-6z m-866 -51 c4 -12 2 -12 -14 -4 -11 6 -20 15 -20 20 0 14 28 1 34 -16z
m946 5 l25 -20 -35 17 c-43 20 -47 24 -29 24 8 0 25 -10 39 -21z m118 -119
c107 -62 142 -87 142 -102 0 -25 7 -28 -159 67 -116 66 -140 84 -141 103 0 13
3 21 8 19 4 -2 71 -41 150 -87z m-870 31 c16 12 16 12 0 -6 -18 -19 -18 -19
-35 0 -17 18 -17 18 0 6 14 -11 20 -11 35 0z m807 -64 c65 -38 91 -59 93 -75
2 -12 1 -22 -2 -22 -3 0 -48 25 -100 56 -68 40 -96 61 -96 75 0 10 3 19 8 19
4 0 48 -24 97 -53z m-745 18 c6 3 10 4 10 1 0 -3 -9 -10 -20 -16 -12 -6 -19
-7 -18 -1 2 5 -6 17 -17 26 -19 16 -18 16 8 1 15 -9 32 -14 37 -11z m50 -41
c0 -2 -9 0 -20 6 -11 6 -20 13 -20 16 0 2 9 0 20 -6 11 -6 20 -13 20 -16z
m-93 1 c0 -6 -8 -11 -17 -11 -9 0 -17 5 -17 11 0 6 8 11 17 11 9 0 17 -5 17
-11z m-304 -9 c3 -6 -6 -11 -18 -11 -12 0 -21 5 -18 11 2 6 10 11 18 11 8 0
16 -5 18 -11z m1057 -20 c36 -21 56 -40 58 -54 4 -29 0 -28 -69 14 -39 23 -59
42 -59 55 0 25 5 24 70 -15z m-930 17 c0 -1 -8 -7 -18 -12 -13 -7 -19 -6 -19
2 0 7 9 13 19 13 10 0 18 -1 18 -3z m127 -16 c0 -7 -9 -13 -19 -13 -18 0 -18
1 -2 13 10 7 18 13 19 13 1 0 2 -6 2 -13z m1278 3 c3 -6 -1 -7 -9 -4 -18 7
-21 14 -7 14 6 0 13 -4 16 -10z m-1155 -27 c0 -3 -3 -3 -6 0 -4 3 -16 1 -28
-5 -18 -10 -19 -9 -9 4 7 8 9 18 5 23 -4 4 3 2 16 -4 12 -6 22 -15 22 -18z
m-303 2 c0 -6 -8 -11 -17 -11 -9 0 -17 5 -17 11 0 6 8 11 17 11 9 0 17 -5 17
-11z m1498 5 c3 -5 2 -10 -4 -10 -5 0 -13 5 -16 10 -3 6 -2 10 4 10 5 0 13 -4
16 -10z m-1371 -9 c-2 -2 2 -11 9 -19 10 -13 9 -14 -8 -4 -15 7 -26 7 -40 -1
-17 -9 -18 -8 -8 5 7 8 11 17 9 19 -2 2 6 4 19 4 13 0 21 -2 19 -4z m307 -8
c13 -16 12 -17 -3 -4 -15 11 -21 11 -35 0 -16 -13 -17 -12 -4 4 7 9 17 17 21
17 4 0 14 -8 21 -17z m1099 -3 c0 -5 -4 -10 -10 -10 -5 0 -10 5 -10 10 0 6 5
10 10 10 6 0 10 -4 10 -10z m-1284 -12 c4 -7 3 -8 -5 -4 -6 4 -20 2 -29 -6
-15 -12 -16 -11 -3 5 16 20 27 22 37 5z m124 -10 c0 -5 -3 -7 -8 -4 -4 2 -16
-2 -27 -10 -19 -14 -19 -14 1 -30 18 -14 17 -14 -6 -2 -14 7 -28 11 -32 10 -5
-1 -8 2 -8 7 0 5 12 12 26 15 16 4 24 12 21 20 -4 10 0 12 14 9 10 -3 19 -10
19 -15z m-300 -14 c0 -3 -5 -2 -10 1 -6 4 -19 1 -28 -7 -15 -11 -15 -11 -5 3
7 9 9 19 5 24 -4 4 3 2 16 -4 12 -6 22 -14 22 -17z m434 0 c3 -8 0 -11 -10 -7
-8 3 -26 -2 -40 -12 -25 -16 -27 -16 -43 1 -15 17 -15 17 1 5 13 -10 21 -10
37 1 12 7 21 15 21 19 0 11 29 5 34 -7z m-303 -11 c13 -15 12 -15 -7 -5 -17 9
-25 8 -41 -8 -18 -16 -23 -17 -39 -5 -18 13 -18 14 1 9 11 -3 29 2 40 10 26
20 30 20 46 -1z m69 -28 c-14 -17 -30 -20 -30 -6 0 5 8 12 18 14 9 3 19 5 21
6 2 0 -2 -6 -9 -14z m132 -7 c-9 -9 -7 -15 6 -25 12 -10 7 -9 -15 2 -33 15
-46 29 -19 19 8 -3 17 -1 21 5 3 6 9 11 13 11 3 0 1 -5 -6 -12z m536 -23 c3
-25 2 -27 -12 -16 -19 16 -22 55 -3 49 6 -3 14 -17 15 -33z m-748 -1 c0 -2 -9
0 -20 6 -11 6 -20 13 -20 16 0 2 9 0 20 -6 11 -6 20 -13 20 -16z m332 17 c20
11 21 10 11 -3 -7 -8 -11 -17 -9 -19 2 -2 -6 -4 -19 -4 -13 0 -21 2 -19 4 2 2
-2 11 -9 20 -10 14 -10 14 5 3 13 -11 21 -11 40 -1z m-302 -16 c-7 -9 -15 -13
-19 -10 -3 3 1 10 9 15 21 14 24 12 10 -5z m427 -10 c0 -6 -8 -11 -17 -11 -9
0 -17 5 -17 11 0 6 8 11 17 11 9 0 17 -5 17 -11z m-304 -9 c3 -6 -6 -11 -18
-11 -12 0 -21 5 -18 11 2 6 10 11 18 11 8 0 16 -5 18 -11z m1167 -27 c0 -5
-11 -2 -25 7 -14 9 -25 20 -25 25 0 5 11 2 25 -7 14 -9 25 -20 25 -25z m-1230
6 c6 3 10 4 10 1 0 -3 -9 -10 -20 -16 -12 -6 -19 -7 -18 -1 2 5 -6 17 -17 26
-19 16 -18 16 8 1 15 -9 32 -14 37 -11z m187 10 c0 -6 -8 -11 -17 -11 -9 0
-17 5 -17 11 0 6 8 11 17 11 9 0 17 -5 17 -11z m-50 -30 c0 -6 -8 -11 -17 -11
-9 0 -17 5 -17 11 0 6 8 11 17 11 9 0 17 -5 17 -11z m126 -11 c-2 -6 -10 -11
-18 -11 -8 0 -16 5 -18 11 -3 6 6 11 18 11 12 0 21 -5 18 -11z m-179 -13 c-2
-2 2 -11 9 -20 10 -14 10 -14 -5 -3 -9 8 -21 11 -27 8 -5 -3 -11 0 -14 7 -3 7
4 12 18 12 13 0 21 -2 19 -4z m126 -27 c0 -3 -5 -2 -10 1 -6 4 -19 1 -28 -6
-14 -11 -15 -11 -5 1 10 11 9 16 -5 27 -12 10 -7 9 16 -2 17 -8 32 -18 32 -21z
m990 16 c0 -5 -2 -10 -4 -10 -3 0 -8 5 -11 10 -3 6 -1 10 4 10 6 0 11 -4 11
-10z m30 -21 c0 -6 -4 -7 -10 -4 -5 3 -10 11 -10 16 0 6 5 7 10 4 6 -3 10 -11
10 -16z m-14 -60 c19 -21 19 -21 -9 -8 -15 7 -27 16 -27 21 0 14 16 9 36 -13z
m9 -79 c4 -6 -2 -7 -16 -1 -13 4 -25 14 -27 20 -3 10 0 10 16 2 12 -6 24 -16
27 -21z m0 -70 c4 -6 -2 -7 -16 -1 -13 4 -25 14 -27 20 -3 10 0 10 16 2 12 -6
24 -16 27 -21z"/>
<path d="M8226 3511 c-3 -5 4 -21 16 -37 l22 -27 -23 6 c-18 4 -20 3 -10 -9
15 -18 39 -18 39 0 0 7 -7 19 -15 26 -20 17 -19 34 1 26 14 -5 15 -4 4 9 -14
17 -26 19 -34 6z"/>
<path d="M4273 3354 c-80 -39 -163 -171 -171 -270 l-4 -52 45 -26 c55 -33 98
-29 153 15 34 27 94 109 94 128 0 5 6 11 14 14 20 8 30 99 16 142 -21 63 -79
82 -147 49z m77 -83 c40 -76 -53 -241 -137 -241 -51 0 -58 89 -12 168 45 80
124 118 149 73z"/>
<path d="M4259 3255 c-1 -3 -2 -10 -3 -15 0 -6 -8 -15 -16 -21 -12 -8 -12 -10
4 -7 10 2 25 13 34 26 13 20 13 22 -2 22 -9 0 -17 -2 -17 -5z"/>
<path d="M4305 3238 c-8 -31 0 -48 21 -48 18 0 18 30 0 56 -14 18 -15 18 -21
-8z"/>
<path d="M4197 3167 c-2 -12 -8 -31 -12 -42 -6 -17 -4 -17 14 4 22 25 27 46
12 55 -5 3 -11 -4 -14 -17z"/>
<path d="M4253 3165 c-3 -9 -3 -18 0 -21 9 -9 27 6 27 22 0 19 -19 18 -27 -1z"/>
<path d="M4280 3131 c-24 -46 -3 -56 23 -11 16 26 16 30 3 30 -8 0 -20 -9 -26
-19z"/>
<path d="M4206 3091 c-17 -18 -16 -20 4 -26 26 -8 45 7 37 29 -8 21 -20 20
-41 -3z"/>
<path d="M860 2525 c-6 -8 -10 -19 -8 -26 2 -6 9 0 16 15 13 29 10 33 -8 11z"/>
<path d="M912 2490 c-8 -13 -8 -20 -1 -20 5 0 8 -4 5 -8 -8 -13 11 -35 24 -27
8 5 7 12 -5 25 -8 9 -13 24 -9 34 8 22 1 20 -14 -4z"/>
<path d="M1061 2374 c0 -11 3 -14 6 -6 3 7 2 16 -1 19 -3 4 -6 -2 -5 -13z"/>
<path d="M1167 2349 c-16 -22 -14 -39 3 -39 5 0 14 9 21 21 16 31 -4 47 -24
18z"/>
<path d="M5905 2079 c0 -179 4 -279 10 -280 6 -1 13 -1 18 0 4 0 7 -6 7 -15 0
-8 -4 -12 -10 -9 -5 3 -10 1 -10 -4 0 -14 6 -14 31 -1 15 8 23 7 35 -4 8 -8
21 -13 30 -9 8 3 14 2 13 -3 -3 -20 2 -24 21 -14 29 15 25 40 -6 40 -19 0 -24
4 -20 18 3 9 10 71 16 137 7 65 16 144 21 174 4 30 6 87 2 126 l-6 73 -39 5
c-21 3 -55 14 -76 25 l-37 19 0 -278z m94 -79 c1 -147 -5 -180 -36 -180 -22 0
-23 2 -18 48 6 53 34 321 37 349 3 41 16 -120 17 -217z"/>
<path d="M1086 2311 c-4 -5 -2 -12 3 -15 5 -4 12 -2 15 3 4 5 2 12 -3 15 -5 4
-12 2 -15 -3z"/>
<path d="M916 2264 c-8 -22 -8 -24 8 -24 21 0 28 16 12 29 -11 9 -15 8 -20 -5z"/>
<path d="M860 2225 c-6 -8 -10 -19 -8 -26 2 -6 9 0 16 15 13 29 10 33 -8 11z"/>
<path d="M6157 1957 c2 -229 5 -283 17 -285 15 -3 15 -3 42 260 10 93 19 166
21 164 2 -2 13 -34 24 -72 20 -66 23 -126 16 -294 -2 -25 2 -35 13 -35 21 0
40 143 41 316 2 152 -4 183 -30 174 -22 -7 -107 19 -129 39 -16 14 -17 -5 -15
-267z"/>
<path d="M6742 2130 c-18 -11 -30 -24 -27 -29 3 -5 35 -26 71 -46 66 -37 67
-37 100 -21 19 8 34 20 34 25 0 7 -133 91 -143 91 -1 0 -17 -9 -35 -20z"/>
<path d="M6000 1730 c0 -5 5 -10 11 -10 5 0 7 5 4 10 -3 6 -8 10 -11 10 -2 0
-4 -4 -4 -10z"/>
</g>
</svg>
