<?xml version="1.0" standalone="no"?>
<!DOCTYPE svg PUBLIC "-//W3C//DTD SVG 20010904//EN"
 "http://www.w3.org/TR/2001/REC-SVG-20010904/DTD/svg10.dtd">
<svg version="1.0" xmlns="http://www.w3.org/2000/svg"
 width="1200.000000pt" height="822.000000pt" viewBox="0 0 1200.000000 822.000000"
 preserveAspectRatio="xMidYMid meet">

<g transform="translate(0.000000,822.000000) scale(0.100000,-0.100000)"
fill="#000000" stroke="none">
<path d="M3440 7701 l0 -81 76 0 76 0 -61 69 c-95 107 -91 106 -91 12z"/>
<path d="M4820 7570 c0 -5 7 -10 16 -10 8 0 12 5 9 10 -3 6 -10 10 -16 10 -5
0 -9 -4 -9 -10z"/>
<path d="M4447 7563 c-15 -14 -6 -43 18 -59 14 -9 25 -23 25 -31 0 -11 -7 -13
-25 -9 -29 7 -34 -10 -5 -19 26 -8 60 11 60 35 0 12 -12 26 -30 35 -36 19 -39
35 -6 35 14 0 28 5 31 10 7 11 -57 14 -68 3z"/>
<path d="M5120 7511 c0 -34 4 -61 10 -61 6 0 10 9 10 20 0 11 4 20 10 20 5 0
15 -9 22 -20 7 -11 19 -20 27 -20 11 0 10 4 -2 24 -11 16 -12 27 -6 33 6 6 9
21 7 34 -2 20 -10 25 -40 27 l-38 3 0 -60z m58 22 c-5 -26 -38 -29 -38 -4 0
15 6 21 21 21 14 0 19 -5 17 -17z"/>
<path d="M4540 7516 c-5 -14 -7 -33 -4 -41 9 -22 41 -37 64 -30 29 9 25 21 -7
20 -14 0 -28 6 -30 13 -3 8 6 12 27 12 27 0 31 3 28 23 -2 17 -11 23 -36 25
-27 3 -34 -1 -42 -22z m58 -4 c2 -7 -6 -12 -17 -12 -21 0 -27 11 -14 24 9 9
26 2 31 -12z"/>
<path d="M4640 7493 c0 -23 5 -43 10 -43 6 0 10 9 10 19 0 30 11 51 26 51 8 0
14 4 14 9 0 5 -13 9 -30 9 -29 -1 -30 -3 -30 -45z"/>
<path d="M4728 7495 c20 -56 39 -55 63 3 14 33 15 42 5 42 -8 0 -20 -15 -26
-32 l-13 -33 -10 33 c-5 17 -16 32 -23 32 -10 0 -9 -10 4 -45z"/>
<path d="M4820 7495 c0 -25 5 -45 10 -45 6 0 10 20 10 45 0 25 -4 45 -10 45
-5 0 -10 -20 -10 -45z"/>
<path d="M4870 7515 c-5 -14 -7 -32 -4 -40 8 -21 39 -36 58 -29 24 9 19 24 -6
21 -18 -2 -24 4 -26 26 -3 23 0 27 22 27 14 0 26 5 26 10 0 6 -14 10 -30 10
-23 0 -33 -6 -40 -25z"/>
<path d="M4970 7521 c-5 -11 -10 -27 -10 -35 0 -22 45 -49 70 -41 28 9 25 21
-7 20 -14 0 -28 6 -30 13 -3 8 6 12 26 12 31 0 36 6 25 34 -9 23 -61 21 -74
-3z m58 -9 c2 -7 -6 -12 -17 -12 -21 0 -27 11 -14 24 9 9 26 2 31 -12z"/>
<path d="M5230 7516 c-5 -14 -7 -33 -4 -41 9 -22 41 -37 64 -30 29 9 25 21 -7
20 -14 0 -28 6 -30 13 -3 8 6 12 27 12 27 0 31 3 28 23 -2 17 -11 23 -36 25
-27 3 -34 -1 -42 -22z m58 -4 c2 -7 -6 -12 -17 -12 -21 0 -27 11 -14 24 9 9
26 2 31 -12z"/>
<path d="M5325 7523 c4 -10 12 -30 17 -45 14 -38 35 -35 53 8 17 42 19 54 6
54 -5 0 -15 -14 -22 -32 l-13 -32 -13 32 c-7 18 -18 32 -24 32 -7 0 -8 -7 -4
-17z"/>
<path d="M5430 7521 c-5 -11 -10 -27 -10 -35 0 -22 45 -49 70 -41 28 9 25 21
-7 20 -14 0 -28 6 -30 13 -3 8 6 12 26 12 31 0 36 6 25 34 -9 23 -61 21 -74
-3z m58 -9 c2 -7 -6 -12 -17 -12 -21 0 -27 11 -14 24 9 9 26 2 31 -12z"/>
<path d="M5530 7494 c0 -51 17 -60 22 -12 2 22 9 34 21 36 14 3 17 -4 17 -32
0 -20 5 -36 11 -36 6 0 9 17 7 43 -3 41 -4 42 -40 44 l-38 1 0 -44z"/>
<path d="M5640 7501 c0 -47 14 -60 58 -54 30 5 32 7 32 49 0 32 -4 44 -15 44
-10 0 -15 -10 -15 -34 0 -38 -17 -57 -31 -35 -5 8 -9 26 -9 42 0 15 -4 27 -10
27 -5 0 -10 -17 -10 -39z"/>
<path d="M5762 7528 c-13 -13 -16 -47 -4 -65 10 -17 59 -27 66 -14 4 7 -1 11
-12 11 -11 0 -25 7 -32 15 -11 13 -7 15 24 15 23 0 36 5 36 13 0 19 -21 37
-45 37 -12 0 -26 -5 -33 -12z m48 -13 c0 -8 -7 -15 -15 -15 -8 0 -15 7 -15 15
0 8 7 15 15 15 8 0 15 -7 15 -15z"/>
<path d="M4993 7329 c-130 -22 -251 -96 -327 -199 -168 -227 -120 -549 104
-714 70 -52 142 -81 236 -96 70 -11 92 -5 81 24 -5 11 -20 16 -51 16 -97 0
-229 62 -300 140 -88 97 -126 196 -126 325 0 246 170 438 410 463 56 6 65 10
65 27 0 24 -19 27 -92 14z"/>
<path d="M4860 6867 c0 -27 5 -35 30 -44 32 -12 40 -39 18 -62 -11 -10 -10
-11 4 -6 37 15 26 68 -17 79 -18 5 -25 13 -25 31 0 19 6 24 33 28 31 4 31 4
-5 5 -37 2 -38 1 -38 -31z"/>
<path d="M5029 6893 c0 -5 0 -28 1 -52 2 -43 2 -43 -30 -39 -17 3 -33 1 -36
-4 -3 -4 11 -8 30 -8 32 0 36 -3 36 -25 0 -14 5 -25 10 -25 6 0 10 11 10 24 0
13 6 27 13 29 10 4 10 6 0 6 -9 1 -13 18 -13 51 0 28 -4 50 -10 50 -5 0 -10
-3 -11 -7z"/>
<path d="M5100 6831 c0 -10 19 -25 25 -20 1 2 -3 10 -11 17 -8 7 -14 8 -14 3z"/>
<path d="M7802 6830 c-149 -31 -255 -162 -255 -316 0 -178 139 -317 318 -317
127 0 230 64 286 179 58 118 39 255 -50 357 -64 73 -200 117 -299 97z m146
-162 c5 -8 6 -22 1 -33 -13 -34 -10 -42 21 -55 21 -9 30 -19 30 -36 0 -32 -16
-31 -97 6 -37 17 -70 27 -75 22 -5 -5 26 -23 67 -41 83 -37 86 -42 55 -108
-21 -48 -27 -50 -73 -27 -21 11 -32 13 -35 5 -2 -6 -12 -21 -22 -33 -17 -21
-20 -22 -35 -7 -13 13 -15 21 -6 37 17 31 14 38 -19 52 -21 9 -30 19 -30 36 0
32 16 31 97 -6 37 -17 70 -27 75 -22 5 5 -26 23 -67 41 -83 37 -86 42 -55 109
20 45 31 49 70 27 34 -20 37 -19 49 15 10 31 31 39 49 18z"/>
<path d="M5202 6790 c0 -19 2 -27 5 -17 2 9 2 25 0 35 -3 9 -5 1 -5 -18z"/>
<path d="M5252 6790 c0 -19 2 -27 5 -17 2 9 2 25 0 35 -3 9 -5 1 -5 -18z"/>
<path d="M4000 6610 c0 -40 4 -70 10 -70 6 0 10 30 10 70 0 40 -4 70 -10 70
-6 0 -10 -30 -10 -70z"/>
<path d="M2980 6605 c0 -75 17 -89 22 -17 l3 47 30 -48 c41 -65 59 -59 63 21
2 51 0 62 -13 62 -11 0 -15 -11 -15 -47 l0 -48 -27 48 c-16 29 -33 47 -45 47
-16 0 -18 -9 -18 -65z"/>
<path d="M3436 6648 c-9 -12 -16 -33 -16 -45 0 -28 33 -63 59 -63 31 0 34 18
4 22 -25 3 -28 7 -28 43 0 36 3 40 28 43 36 4 35 22 -2 22 -20 0 -35 -8 -45
-22z"/>
<path d="M3792 6658 c-19 -19 -14 -35 18 -58 34 -24 30 -44 -7 -37 -15 3 -22
0 -20 -7 5 -16 46 -20 63 -6 22 19 17 49 -11 62 -33 15 -32 38 1 38 14 0 23 4
19 10 -9 14 -48 13 -63 -2z"/>
<path d="M5060 6650 c0 -5 5 -10 11 -10 5 0 7 5 4 10 -3 6 -8 10 -11 10 -2 0
-4 -4 -4 -10z"/>
<path d="M3144 6632 c-36 -25 -14 -92 31 -92 34 0 41 18 8 22 -39 4 -42 28 -4
28 24 0 31 4 31 19 0 26 -41 41 -66 23z m44 -20 c2 -7 -6 -12 -17 -12 -21 0
-27 11 -14 24 9 9 26 2 31 -12z"/>
<path d="M3225 6608 c16 -73 40 -89 51 -33 7 37 24 48 24 16 0 -47 22 -65 38
-33 16 30 24 82 13 82 -6 0 -14 -15 -19 -32 -10 -33 -11 -32 -27 17 -2 8 -9
15 -15 15 -6 0 -13 -7 -15 -15 -16 -49 -17 -50 -27 -17 -5 17 -13 32 -19 32
-7 0 -8 -12 -4 -32z"/>
<path d="M3550 6630 c0 -5 9 -10 20 -10 11 0 20 -4 20 -10 0 -5 -8 -10 -19
-10 -10 0 -24 -7 -31 -15 -19 -22 4 -43 45 -42 33 1 35 3 35 37 0 20 -5 41
-12 48 -15 15 -58 16 -58 2z m40 -55 c0 -8 -7 -15 -15 -15 -16 0 -20 12 -8 23
11 12 23 8 23 -8z"/>
<path d="M3660 6588 c0 -27 5 -48 10 -48 6 0 10 16 10 36 0 27 5 37 20 41 31
8 24 22 -10 20 -29 -2 -30 -4 -30 -49z"/>
<path d="M3890 6631 c0 -6 11 -11 25 -11 34 0 32 -18 -2 -22 -22 -2 -28 -8
-28 -28 0 -22 4 -25 38 -25 l38 -1 -3 46 c-3 43 -5 45 -35 48 -19 2 -33 -1
-33 -7z m50 -50 c0 -14 -18 -23 -30 -16 -6 4 -8 11 -5 16 8 12 35 12 35 0z"/>
<path d="M4050 6619 c-26 -47 20 -95 67 -73 14 6 11 9 -14 12 -43 4 -45 32 -3
32 31 0 39 17 18 38 -19 19 -56 14 -68 -9z m58 -7 c2 -7 -6 -12 -17 -12 -21 0
-27 11 -14 24 9 9 26 2 31 -12z"/>
<path d="M4147 6633 c-14 -14 -6 -34 18 -45 33 -15 32 -28 -2 -28 -19 0 -24
-3 -16 -11 6 -6 21 -9 34 -7 33 4 37 37 8 59 l-24 19 23 0 c12 0 22 5 22 10 0
11 -53 14 -63 3z"/>
<path d="M3500 6195 c13 -14 26 -25 28 -25 3 0 -5 11 -18 25 -13 14 -26 25
-28 25 -3 0 5 -11 18 -25z"/>
<path d="M3339 6163 c-13 -16 -12 -17 4 -4 9 7 17 15 17 17 0 8 -8 3 -21 -13z"/>
<path d="M4189 5953 c-13 -16 -12 -17 4 -4 9 7 17 15 17 17 0 8 -8 3 -21 -13z"/>
<path d="M5428 5893 c12 -2 30 -2 40 0 9 3 -1 5 -23 4 -22 0 -30 -2 -17 -4z"/>
<path d="M5318 5883 c7 -3 16 -2 19 1 4 3 -2 6 -13 5 -11 0 -14 -3 -6 -6z"/>
<path d="M3662 5838 c-13 -36 -1 -68 27 -68 42 0 54 53 16 74 -11 6 -22 14
-25 18 -3 4 -11 -7 -18 -24z m48 -28 c0 -11 -6 -20 -14 -20 -18 0 -29 16 -21
30 11 18 35 11 35 -10z"/>
<path d="M4389 5808 c-12 -28 -11 -32 11 -50 21 -17 24 -17 41 -2 27 25 23 51
-10 68 -28 15 -29 15 -42 -16z m49 -21 c2 -12 -3 -17 -17 -17 -12 0 -21 6 -21
13 0 31 32 34 38 4z"/>
<path d="M4070 5727 c-25 -13 -42 -67 -21 -67 6 0 11 -7 11 -16 0 -14 1 -14
16 0 8 9 20 16 25 16 10 0 11 37 1 62 -6 15 -11 16 -32 5z m28 -34 c5 -17 -26
-29 -40 -15 -6 6 -7 15 -3 22 9 14 37 9 43 -7z"/>
<path d="M4909 5703 c-13 -16 -12 -17 4 -4 16 13 21 21 13 21 -2 0 -10 -8 -17
-17z"/>
<path d="M4869 5673 c-13 -16 -12 -17 4 -4 16 13 21 21 13 21 -2 0 -10 -8 -17
-17z"/>
<path d="M4824 5638 l-19 -23 23 19 c21 18 27 26 19 26 -2 0 -12 -10 -23 -22z"/>
<path d="M4769 5593 c-13 -16 -12 -17 4 -4 9 7 17 15 17 17 0 8 -8 3 -21 -13z"/>
<path d="M4021 5543 c-10 -26 -10 -27 4 -9 8 11 15 23 15 28 0 15 -7 8 -19
-19z"/>
<path d="M4719 5553 c-13 -16 -12 -17 4 -4 9 7 17 15 17 17 0 8 -8 3 -21 -13z"/>
<path d="M4558 5463 c7 -3 16 -2 19 1 4 3 -2 6 -13 5 -11 0 -14 -3 -6 -6z"/>
<path d="M3903 5443 c9 -2 23 -2 30 0 6 3 -1 5 -18 5 -16 0 -22 -2 -12 -5z"/>
<path d="M9067 5059 c-110 -26 -180 -112 -180 -224 0 -167 171 -277 323 -208
192 87 171 367 -32 428 -57 17 -57 17 -111 4z m110 -138 c-5 -23 -2 -30 19
-39 13 -7 24 -16 24 -22 0 -22 -34 -22 -77 -1 -25 12 -48 20 -50 17 -3 -3 18
-16 46 -30 53 -27 59 -38 39 -81 -12 -27 -28 -31 -58 -15 -15 8 -20 6 -25 -10
-4 -11 -15 -20 -27 -20 -17 0 -20 5 -15 29 5 23 2 30 -19 39 -13 7 -24 16 -24
22 0 22 34 22 77 1 25 -12 48 -20 50 -17 3 3 -18 16 -46 30 -53 27 -59 38 -39
81 12 27 28 31 58 15 15 -8 20 -6 25 10 4 11 15 20 27 20 17 0 20 -5 15 -29z"/>
<path d="M6893 4575 c-26 -18 -38 -67 -23 -94 28 -53 88 -63 130 -21 64 64
-33 167 -107 115z"/>
<path d="M6530 4272 l0 -72 67 0 67 0 -64 67 c-36 37 -66 69 -67 72 -2 2 -3
-28 -3 -67z"/>
<path d="M4421 4284 l-31 -26 0 -159 0 -159 1095 0 1095 0 0 34 c0 30 -4 35
-45 50 -93 36 -183 147 -201 249 l-6 37 -938 0 -938 0 -31 -26z m579 -116 l0
-41 23 21 c23 22 57 30 57 13 0 -5 -7 -14 -15 -21 -8 -7 -15 -18 -15 -25 0
-18 39 -64 40 -46 0 9 8 12 25 9 14 -3 25 -2 25 2 0 4 -11 12 -25 18 -28 13
-33 43 -11 61 22 18 70 10 74 -13 3 -16 0 -18 -23 -12 -17 4 -24 3 -20 -4 3
-5 13 -10 20 -10 18 0 37 -34 29 -54 -8 -20 -27 -25 -89 -25 -37 1 -53 5 -63
20 -17 25 -32 24 -32 -1 0 -11 -7 -20 -15 -20 -12 0 -15 16 -15 85 0 69 3 85
15 85 11 0 15 -11 15 -42z m330 32 c0 -6 -10 -15 -22 -20 -18 -7 -19 -9 -5 -9
9 -1 17 -8 17 -18 0 -15 1 -15 18 0 40 37 102 9 102 -46 0 -60 -59 -88 -100
-47 -11 11 -20 31 -20 45 0 16 -6 25 -15 25 -11 0 -15 -12 -15 -45 0 -38 -3
-45 -20 -45 -17 0 -20 7 -20 45 0 25 -4 45 -10 45 -5 0 -10 7 -10 15 0 8 5 15
10 15 6 0 10 8 10 18 0 10 3 22 7 25 10 11 73 8 73 -3z m610 -74 l0 -83 -45
-1 c-50 -1 -65 14 -65 65 0 43 21 67 53 61 23 -4 27 -2 27 18 0 15 6 24 15 24
12 0 15 -16 15 -84z m-1230 59 c0 -8 -9 -15 -20 -15 -18 0 -20 -7 -20 -65 0
-58 -2 -65 -20 -65 -18 0 -20 7 -20 65 0 58 -2 65 -20 65 -11 0 -20 7 -20 15
0 12 13 15 60 15 47 0 60 -3 60 -15z m940 -5 c0 -5 7 -10 15 -10 8 0 15 -9 15
-20 0 -11 -7 -20 -15 -20 -10 0 -15 -10 -15 -31 0 -24 4 -30 15 -25 10 4 15
-1 15 -14 0 -13 -7 -20 -19 -20 -40 0 -51 11 -51 51 0 21 -4 39 -10 39 -15 0
-12 17 7 40 18 21 43 27 43 10z m-829 -20 c15 -9 19 -22 19 -65 l0 -54 -32 1
c-71 2 -79 6 -76 41 3 28 7 32 36 35 18 2 30 7 27 12 -3 4 -14 6 -24 3 -23 -6
-39 16 -20 28 19 12 46 11 70 -1z m127 -14 c3 -16 0 -18 -23 -12 -17 4 -24 3
-20 -4 3 -5 13 -10 20 -10 19 0 37 -34 29 -54 -13 -33 -86 -34 -92 -2 -3 15 1
18 22 14 33 -7 34 5 1 20 -47 22 -24 75 30 70 20 -2 31 -9 33 -22z m592 4 c0
-10 -9 -20 -20 -23 -16 -4 -20 -14 -20 -46 0 -34 -3 -41 -20 -41 -18 0 -20 7
-20 64 l0 63 40 0 c31 0 40 -3 40 -17z m264 -2 c33 -47 9 -108 -42 -108 -55 0
-83 70 -45 112 23 25 68 23 87 -4z m254 10 c7 -7 12 -35 12 -64 l0 -51 -42 0
c-50 -1 -68 11 -68 42 0 24 17 35 51 35 11 0 18 4 15 9 -3 5 -15 7 -25 4 -23
-6 -39 16 -20 28 20 13 63 11 77 -3z m77 -27 l11 -34 10 34 c7 24 16 35 32 37
12 2 22 1 22 -1 0 -22 -55 -146 -72 -159 -27 -24 -48 -23 -48 2 0 11 7 20 15
20 20 0 19 19 -5 80 -25 63 -25 62 2 58 14 -2 25 -14 33 -37z"/>
<path d="M5373 4133 c-18 -6 -16 -50 1 -56 18 -7 26 1 26 29 0 25 -9 34 -27
27z"/>
<path d="M5875 4127 c-15 -38 9 -66 29 -35 8 14 7 21 -6 35 -16 15 -18 15 -23
0z"/>
<path d="M4777 4093 c-12 -12 -7 -22 8 -17 8 4 15 10 15 15 0 11 -14 12 -23 2z"/>
<path d="M5746 4133 c-3 -4 -6 -16 -6 -28 0 -12 3 -24 6 -28 12 -12 34 6 34
28 0 22 -22 40 -34 28z"/>
<path d="M6005 4091 c-6 -11 9 -23 19 -14 9 9 7 23 -3 23 -6 0 -12 -4 -16 -9z"/>
<path d="M761 4026 c-10 -12 -4 -21 36 -50 26 -20 54 -36 61 -36 25 0 103 61
100 78 -5 24 -178 31 -197 8z"/>
<path d="M1900 4005 c0 -8 5 -15 10 -15 6 0 10 7 10 15 0 8 -4 15 -10 15 -5 0
-10 -7 -10 -15z"/>
<path d="M2140 3996 c0 -19 -4 -22 -25 -19 -33 7 -54 -34 -37 -71 9 -20 18
-24 46 -23 l36 2 0 68 c0 38 -4 67 -10 67 -5 0 -10 -11 -10 -24z m-5 -66 c0
-36 -29 -33 -33 3 -3 23 0 28 15 25 12 -2 18 -12 18 -28z"/>
<path d="M1070 4005 c0 -3 9 -23 20 -45 11 -22 20 -48 20 -60 0 -11 5 -20 10
-20 6 0 10 12 10 28 0 15 9 42 20 60 24 38 24 42 7 42 -8 0 -19 -12 -26 -27
l-13 -28 -14 28 c-13 23 -34 37 -34 22z"/>
<path d="M1202 3968 c-17 -17 -15 -63 3 -78 23 -19 64 -4 71 27 4 14 2 33 -3
42 -13 20 -54 26 -71 9z m52 -23 c8 -21 -3 -45 -20 -45 -8 0 -17 7 -20 15 -8
21 2 45 20 45 7 0 16 -7 20 -15z"/>
<path d="M1312 3933 l3 -48 38 0 37 -1 0 48 c0 57 -17 65 -22 11 -2 -26 -8
-38 -18 -38 -10 0 -16 12 -18 38 -5 55 -24 45 -20 -10z"/>
<path d="M1422 3931 c3 -53 21 -62 26 -13 2 18 10 36 18 39 24 9 15 20 -16 20
-30 0 -31 -1 -28 -46z"/>
<path d="M1562 3968 c-30 -30 -4 -94 34 -86 26 5 28 25 2 24 -33 -1 -33 48 0
52 12 2 22 8 22 13 0 13 -44 11 -58 -3z"/>
<path d="M1660 3971 c0 -6 9 -11 19 -11 31 0 34 -18 4 -22 -22 -2 -28 -8 -28
-28 0 -22 4 -25 38 -25 l38 0 -3 45 c-3 43 -5 45 -35 48 -19 2 -33 -1 -33 -7z
m50 -51 c0 -12 -28 -25 -36 -17 -9 9 6 27 22 27 8 0 14 -5 14 -10z"/>
<path d="M1770 3928 c0 -26 5 -48 10 -48 6 0 10 16 10 36 0 27 5 37 20 41 30
8 24 22 -10 21 -29 -1 -30 -3 -30 -50z"/>
<path d="M1900 3930 c0 -27 5 -50 10 -50 6 0 10 23 10 50 0 28 -4 50 -10 50
-5 0 -10 -22 -10 -50z"/>
<path d="M1947 3973 c-14 -14 -6 -34 18 -45 33 -15 32 -28 -2 -28 -19 0 -24
-3 -16 -11 6 -6 21 -9 34 -7 33 4 37 37 8 59 l-24 19 23 0 c12 0 22 5 22 10 0
11 -53 14 -63 3z"/>
<path d="M2190 3941 c0 -45 13 -58 58 -58 32 0 32 1 32 49 0 26 -4 48 -10 48
-5 0 -10 -11 -10 -24 0 -35 -10 -56 -26 -56 -10 0 -14 12 -14 40 0 29 -4 40
-15 40 -11 0 -15 -11 -15 -39z"/>
<path d="M2310 3959 c-26 -47 20 -95 67 -73 14 6 11 9 -14 12 -43 4 -45 32 -3
32 31 0 39 17 18 38 -19 19 -56 14 -68 -9z m58 -7 c2 -7 -6 -12 -17 -12 -21 0
-27 11 -14 24 9 9 26 2 31 -12z"/>
<path d="M750 3933 l0 -36 25 23 c23 21 23 24 7 36 -27 21 -32 17 -32 -23z"/>
<path d="M938 3956 c-16 -12 -16 -15 7 -36 l25 -23 0 36 c0 40 -5 44 -32 23z"/>
<path d="M792 3907 c-12 -13 -22 -26 -22 -30 0 -4 41 -7 90 -7 50 0 90 4 90 8
0 5 -11 19 -24 31 -20 19 -28 21 -45 12 -15 -8 -27 -9 -40 -1 -26 13 -24 14
-49 -13z"/>
<path d="M2930 3910 c-12 -12 -20 -33 -20 -55 0 -22 8 -43 20 -55 12 -12 33
-20 55 -20 22 0 43 8 55 20 12 12 20 33 20 55 0 22 -8 43 -20 55 -12 12 -33
20 -55 20 -22 0 -43 -8 -55 -20z"/>
<path d="M1082 3780 c-12 -32 -2 -110 14 -110 10 0 14 12 14 40 0 25 5 40 13
40 8 0 7 3 -3 10 -13 8 -12 11 5 24 19 15 19 15 -8 16 -19 0 -30 -6 -35 -20z"/>
<path d="M1396 3784 c-22 -22 -20 -30 14 -56 17 -12 30 -25 30 -30 0 -4 -13
-8 -30 -8 -16 0 -30 -5 -30 -11 0 -6 16 -9 38 -7 31 3 37 7 40 29 2 19 -3 28
-23 37 -31 14 -28 38 4 35 24 -3 28 12 5 21 -24 9 -31 8 -48 -10z"/>
<path d="M1770 3790 c0 -5 5 -10 10 -10 6 0 10 5 10 10 0 6 -4 10 -10 10 -5 0
-10 -4 -10 -10z"/>
<path d="M1915 3790 c3 -5 10 -10 16 -10 5 0 9 5 9 10 0 6 -7 10 -16 10 -8 0
-12 -4 -9 -10z"/>
<path d="M2180 3750 c0 -22 5 -40 10 -40 6 0 10 18 10 40 0 22 -4 40 -10 40
-5 0 -10 -18 -10 -40z"/>
<path d="M1158 3759 c-36 -20 -19 -89 21 -89 32 0 51 16 51 45 0 40 -39 63
-72 44z m42 -24 c15 -18 6 -45 -15 -45 -18 0 -30 24 -21 45 7 19 20 19 36 0z"/>
<path d="M1295 3760 c-3 -5 -12 -7 -20 -3 -12 4 -15 -5 -15 -41 0 -25 5 -46
10 -46 6 0 10 14 10 31 0 22 5 32 20 36 11 3 20 12 20 19 0 16 -16 19 -25 4z"/>
<path d="M1499 3751 c-20 -16 -22 -23 -14 -47 9 -24 17 -30 48 -32 20 -2 37 1
37 7 0 5 -12 9 -26 8 -15 -1 -29 4 -31 11 -3 8 6 12 26 12 24 0 31 4 31 20 0
10 -9 24 -19 30 -25 13 -25 13 -52 -9z m46 -11 c3 -5 -3 -10 -14 -10 -12 0
-21 5 -21 10 0 6 6 10 14 10 8 0 18 -4 21 -10z"/>
<path d="M1625 3761 c-3 -6 -12 -8 -20 -4 -12 4 -15 -5 -15 -41 0 -25 5 -46
10 -46 6 0 10 13 10 29 0 18 8 34 22 43 14 9 18 17 11 21 -7 4 -14 3 -18 -2z"/>
<path d="M1826 3755 c-17 -17 -20 -42 -10 -69 7 -18 64 -23 64 -6 0 6 -9 10
-20 10 -11 0 -23 7 -26 15 -8 20 15 47 33 40 9 -3 13 0 11 7 -7 20 -34 21 -52
3z"/>
<path d="M1988 3763 c-26 -4 -28 -8 -28 -49 0 -32 4 -44 15 -44 10 0 15 10 15
34 0 38 17 57 31 35 5 -8 9 -26 9 -41 0 -16 5 -28 10 -28 14 0 12 74 -2 88 -7
7 -14 11 -17 11 -4 -1 -18 -4 -33 -6z"/>
<path d="M2085 3756 c-17 -12 -18 -18 -8 -34 9 -15 9 -25 -1 -43 -17 -34 -10
-49 24 -49 42 0 60 10 60 31 0 14 -9 21 -30 26 -30 6 -30 6 -9 17 27 13 45 56
24 56 -7 0 -19 2 -27 5 -7 3 -22 -1 -33 -9z m45 -20 c0 -21 -21 -31 -30 -15
-5 7 -6 17 -4 21 9 14 34 9 34 -6z m5 -81 c0 -5 -10 -11 -22 -13 -16 -2 -23 2
-23 13 0 11 7 15 23 13 12 -2 22 -7 22 -13z"/>
<path d="M1660 3755 c0 -2 7 -23 16 -45 19 -47 38 -51 52 -12 5 15 13 35 17
45 4 10 3 17 -4 17 -7 0 -18 -14 -25 -31 l-13 -31 -11 31 c-6 17 -16 31 -21
31 -6 0 -11 -2 -11 -5z"/>
<path d="M1770 3715 c0 -25 5 -45 10 -45 6 0 10 20 10 45 0 25 -4 45 -10 45
-5 0 -10 -20 -10 -45z"/>
<path d="M1920 3715 c0 -25 5 -45 10 -45 6 0 10 20 10 45 0 25 -4 45 -10 45
-5 0 -10 -20 -10 -45z"/>
<path d="M5480 3750 c0 -5 7 -10 16 -10 8 0 12 5 9 10 -3 6 -10 10 -16 10 -5
0 -9 -4 -9 -10z"/>
<path d="M5530 3695 c0 -37 4 -65 10 -65 6 0 10 28 10 65 0 37 -4 65 -10 65
-6 0 -10 -28 -10 -65z"/>
<path d="M5580 3750 c0 -5 5 -10 10 -10 6 0 10 5 10 10 0 6 -4 10 -10 10 -5 0
-10 -4 -10 -10z"/>
<path d="M4636 3728 c-29 -41 -15 -91 28 -102 39 -10 56 2 56 40 0 27 -4 34
-20 34 -11 0 -20 -4 -20 -10 0 -5 5 -10 10 -10 6 0 10 -9 10 -20 0 -11 -6 -20
-14 -20 -22 0 -38 26 -34 57 2 23 8 29 36 31 43 4 41 22 -2 22 -25 0 -39 -7
-50 -22z"/>
<path d="M5290 3741 c0 -5 5 -32 12 -60 8 -38 16 -51 29 -51 13 0 20 11 25 35
3 19 10 35 14 35 4 0 11 -16 14 -35 5 -24 12 -35 25 -35 13 0 21 13 29 51 14
61 15 69 3 69 -5 0 -14 -21 -21 -47 l-13 -48 -11 45 c-7 26 -18 45 -26 45 -8
0 -19 -19 -26 -45 l-11 -45 -13 48 c-7 26 -16 47 -21 47 -5 0 -9 -4 -9 -9z"/>
<path d="M4760 3701 c-5 -11 -10 -27 -10 -35 0 -22 45 -49 70 -41 28 9 25 21
-7 20 -14 0 -28 6 -30 13 -3 8 6 12 26 12 31 0 36 6 25 34 -9 23 -61 21 -74
-3z m58 -9 c2 -7 -6 -12 -17 -12 -21 0 -27 11 -14 24 9 9 26 2 31 -12z"/>
<path d="M4862 3708 c-24 -24 -12 -69 21 -81 41 -15 70 28 51 77 -7 19 -55 21
-72 4z m56 -32 c2 -10 -1 -23 -7 -29 -15 -15 -46 16 -37 38 8 21 40 15 44 -9z"/>
<path d="M4970 3673 c0 -23 5 -43 10 -43 6 0 10 9 10 19 0 30 11 51 26 51 8 0
14 4 14 9 0 5 -13 9 -30 9 -29 -1 -30 -3 -30 -45z"/>
<path d="M5055 3708 c-3 -7 -3 -26 -2 -43 2 -16 -1 -36 -7 -44 -7 -10 -5 -17
9 -27 25 -18 38 -18 65 4 21 17 21 19 5 35 -9 9 -26 17 -38 18 -20 1 -20 2 3
8 14 4 27 16 29 26 2 11 8 23 15 27 6 4 -8 8 -32 8 -25 0 -44 -5 -47 -12z m45
-19 c0 -24 -23 -21 -28 4 -2 10 3 17 12 17 10 0 16 -9 16 -21z m10 -74 c0 -9
-9 -15 -25 -15 -24 0 -32 10 -18 23 12 13 43 7 43 -8z"/>
<path d="M5150 3696 c-5 -14 -7 -33 -4 -41 9 -22 41 -37 64 -30 29 9 25 21 -7
20 -14 0 -28 6 -30 13 -3 8 6 12 27 12 27 0 31 3 28 23 -2 17 -11 23 -36 25
-27 3 -34 -1 -42 -22z m58 -4 c2 -7 -6 -12 -17 -12 -21 0 -27 11 -14 24 9 9
26 2 31 -12z"/>
<path d="M5480 3675 c0 -25 5 -45 10 -45 6 0 10 20 10 45 0 25 -4 45 -10 45
-5 0 -10 -20 -10 -45z"/>
<path d="M5580 3675 c0 -25 5 -45 10 -45 6 0 10 20 10 45 0 25 -4 45 -10 45
-5 0 -10 -20 -10 -45z"/>
<path d="M5634 3713 c4 -4 15 -8 23 -8 9 0 18 -6 20 -12 3 -8 -5 -13 -21 -13
-15 0 -29 -7 -33 -16 -9 -24 18 -43 55 -37 34 6 39 20 26 71 -5 17 -13 22 -42
22 -19 0 -32 -3 -28 -7z m44 -55 c-6 -18 -28 -21 -28 -4 0 9 7 16 16 16 9 0
14 -5 12 -12z"/>
<path d="M5740 3674 c0 -32 4 -44 15 -44 10 0 15 11 15 35 0 24 5 35 15 35 10
0 15 -11 15 -35 0 -24 5 -35 15 -35 11 0 15 11 15 36 0 28 3 35 18 32 11 -2
18 -14 20 -36 5 -48 24 -39 20 11 l-3 42 -72 1 -73 2 0 -44z"/>
<path d="M5923 3703 c-4 -11 1 -22 15 -31 28 -18 29 -36 2 -29 -23 6 -28 -11
-6 -19 20 -7 56 13 56 32 0 8 -11 19 -25 26 -25 11 -24 34 1 24 7 -3 16 -1 19
4 4 6 -8 10 -25 10 -19 0 -33 -6 -37 -17z"/>
<path d="M2180 3680 c0 -5 5 -10 10 -10 6 0 10 5 10 10 0 6 -4 10 -10 10 -5 0
-10 -4 -10 -10z"/>
<path d="M9797 3679 c-215 -50 -247 -342 -47 -432 86 -38 200 -17 262 49 105
113 67 311 -72 367 -50 21 -100 26 -143 16z m110 -138 c-5 -23 -2 -30 19 -39
13 -7 24 -16 24 -22 0 -22 -34 -22 -77 -1 -25 12 -48 20 -50 17 -3 -3 18 -16
46 -30 53 -27 59 -38 39 -81 -12 -27 -28 -31 -58 -15 -15 8 -20 6 -25 -10 -4
-11 -15 -20 -27 -20 -17 0 -20 5 -15 29 5 23 2 30 -19 39 -13 7 -24 16 -24 22
0 22 34 22 77 1 25 -12 48 -20 50 -17 3 3 -18 16 -46 30 -53 27 -59 38 -39 81
12 27 28 31 58 15 15 -8 20 -6 25 10 4 11 15 20 27 20 17 0 20 -5 15 -29z"/>
<path d="M10750 3582 l0 -72 67 0 67 0 -64 67 c-36 37 -66 69 -67 72 -2 2 -3
-28 -3 -67z"/>
<path d="M2650 3532 l0 -72 67 0 67 0 -64 67 c-36 37 -66 69 -67 72 -2 2 -3
-28 -3 -67z"/>
<path d="M4345 3463 c-61 -7 -73 -13 -85 -42 -6 -16 -21 -37 -31 -47 -15 -13
-18 -25 -14 -46 4 -15 3 -33 -1 -40 -13 -20 -15 -46 -5 -53 5 -3 12 -1 16 5
10 16 22 12 28 -11 11 -42 27 -6 27 61 0 57 4 73 23 95 14 16 32 27 47 26 14
0 44 -1 67 -1 33 -1 47 -7 63 -27 11 -14 20 -36 20 -49 0 -13 4 -24 9 -24 14
0 20 25 10 41 -5 8 -9 26 -9 40 0 20 -7 30 -30 39 -16 7 -35 18 -41 26 -11 14
-31 15 -94 7z"/>
<path d="M6050 3440 c0 -5 5 -10 10 -10 6 0 10 5 10 10 0 6 -4 10 -10 10 -5 0
-10 -4 -10 -10z"/>
<path d="M4630 3380 c0 -33 4 -60 10 -60 6 0 10 8 10 18 0 10 12 22 30 29 51
19 34 73 -22 73 -28 0 -28 -1 -28 -60z m55 25 c0 -11 -8 -21 -17 -23 -14 -3
-18 3 -18 23 0 20 4 26 18 23 9 -2 17 -12 17 -23z"/>
<path d="M5448 3433 c20 -4 22 -10 22 -59 0 -30 5 -54 10 -54 6 0 10 24 10 54
0 49 2 55 23 59 12 2 -3 4 -33 4 -30 0 -45 -2 -32 -4z"/>
<path d="M5840 3380 l0 -60 39 0 c45 0 64 18 64 62 0 37 -24 58 -70 58 l-33 0
0 -60z m75 26 c23 -35 3 -75 -37 -76 -15 0 -18 9 -18 50 0 43 3 50 20 50 11 0
26 -11 35 -24z"/>
<path d="M5728 3420 c-8 -26 5 -99 19 -105 9 -3 19 -2 22 1 3 4 0 9 -6 11 -16
6 -17 73 -2 73 6 0 4 7 -5 15 -17 18 -23 19 -28 5z"/>
<path d="M3284 3376 c-22 -22 -34 -44 -34 -62 0 -26 1 -26 19 -10 10 9 35 19
55 23 33 5 37 3 51 -28 14 -34 14 -34 15 -6 0 37 25 35 39 -3 10 -29 41 -42
41 -17 0 36 -24 89 -51 111 -45 38 -92 35 -135 -8z"/>
<path d="M4740 3371 c0 -46 20 -67 48 -52 11 6 22 7 26 4 3 -3 5 16 5 43 -1
27 -3 40 -6 29 -2 -11 -6 -30 -9 -42 -3 -15 -12 -23 -24 -23 -17 0 -20 7 -20
40 0 22 -4 40 -10 40 -5 0 -10 -17 -10 -39z"/>
<path d="M4862 3360 c1 -36 2 -39 5 -13 3 19 14 39 26 48 22 15 22 15 -6 13
-25 -2 -27 -5 -25 -48z"/>
<path d="M4940 3338 c0 -44 4 -67 10 -63 6 3 10 15 10 26 0 15 5 19 19 14 25
-8 43 17 39 57 -3 31 -6 33 -40 34 l-38 1 0 -69z m60 47 c16 -19 3 -55 -21
-55 -14 0 -19 7 -19 28 0 43 17 54 40 27z"/>
<path d="M5056 3394 c-12 -31 -6 -63 14 -74 40 -22 83 27 60 70 -13 25 -65 28
-74 4z m59 -29 c0 -23 -4 -30 -20 -30 -21 0 -31 25 -21 51 11 28 41 12 41 -21z"/>
<path d="M5164 3398 c-4 -6 4 -20 19 -33 34 -26 34 -35 0 -36 -27 0 -27 -1 -6
-11 17 -8 26 -8 38 2 22 19 18 39 -10 50 -33 13 -32 28 3 33 26 4 25 4 -5 6
-17 0 -35 -4 -39 -11z"/>
<path d="M5257 3403 c-4 -3 -7 -21 -7 -40 0 -26 6 -36 25 -45 19 -9 28 -9 37
0 9 9 6 12 -14 12 -14 0 -28 7 -32 15 -4 12 3 15 29 15 36 0 46 15 23 38 -13
13 -50 16 -61 5z m51 -20 c2 -8 -5 -13 -17 -13 -12 0 -21 6 -21 16 0 18 31 15
38 -3z"/>
<path d="M5350 3400 c0 -5 5 -10 10 -10 6 0 10 5 10 10 0 6 -4 10 -10 10 -5 0
-10 -4 -10 -10z"/>
<path d="M5552 3398 c-33 -33 11 -98 54 -81 16 6 15 8 -10 13 -42 7 -46 30 -6
30 27 0 31 3 28 23 -3 25 -45 36 -66 15z m48 -13 c0 -8 -9 -15 -20 -15 -20 0
-26 11 -13 23 12 13 33 7 33 -8z"/>
<path d="M5647 3403 c-14 -14 -6 -34 18 -43 33 -13 32 -30 -2 -30 -21 0 -24
-3 -15 -12 9 -9 18 -9 37 0 32 15 32 27 0 48 -31 20 -32 31 -2 37 20 4 20 4
-4 6 -14 0 -29 -2 -32 -6z"/>
<path d="M5970 3363 c0 -23 5 -43 10 -43 6 0 10 13 10 29 0 19 8 35 21 45 21
14 21 15 -10 14 -30 -1 -31 -3 -31 -45z"/>
<path d="M6050 3365 c0 -25 5 -45 10 -45 6 0 10 20 10 45 0 25 -4 45 -10 45
-5 0 -10 -20 -10 -45z"/>
<path d="M6108 3365 c19 -51 36 -57 50 -17 5 15 13 35 17 45 4 9 3 17 -3 17
-5 0 -16 -17 -24 -37 l-14 -38 -13 38 c-7 20 -16 37 -21 37 -5 0 -2 -20 8 -45z"/>
<path d="M6206 3394 c-20 -53 17 -100 60 -75 17 9 15 10 -13 11 -23 0 -33 5
-33 15 0 10 10 15 30 15 17 0 30 4 30 9 0 26 -15 41 -40 41 -16 0 -30 -7 -34
-16z m54 -9 c0 -8 -9 -15 -20 -15 -11 0 -20 7 -20 15 0 8 9 15 20 15 11 0 20
-7 20 -15z"/>
<path d="M4343 3333 c9 -2 23 -2 30 0 6 3 -1 5 -18 5 -16 0 -22 -2 -12 -5z"/>
<path d="M5350 3324 c0 -8 5 -12 10 -9 6 3 10 10 10 16 0 5 -4 9 -10 9 -5 0
-10 -7 -10 -16z"/>
<path d="M4458 3313 c7 -3 16 -2 19 1 4 3 -2 6 -13 5 -11 0 -14 -3 -6 -6z"/>
<path d="M4348 3293 c7 -3 16 -2 19 1 4 3 -2 6 -13 5 -11 0 -14 -3 -6 -6z"/>
<path d="M4355 3260 c3 -5 8 -10 11 -10 2 0 4 5 4 10 0 6 -5 10 -11 10 -5 0
-7 -4 -4 -10z"/>
<path d="M3467 3178 c-9 -24 -17 -52 -19 -62 -4 -26 -25 -32 -30 -9 -3 13 -9
8 -21 -21 -9 -21 -17 -45 -17 -54 0 -8 -3 -13 -6 -9 -3 3 -24 -20 -45 -51
l-39 -57 30 -27 c47 -43 79 -47 106 -12 23 28 24 28 69 16 25 -7 55 -12 66
-12 19 0 21 -4 15 -31 -4 -19 1 -50 11 -78 10 -29 13 -55 9 -67 -5 -10 -10
-48 -12 -83 -2 -35 -6 -66 -8 -69 -3 -2 -33 6 -67 18 l-62 23 -63 -66 -64 -67
-50 20 c-28 11 -64 20 -80 20 -16 0 -32 5 -35 10 -4 6 9 10 32 11 99 1 126 6
140 25 16 21 28 62 21 70 -3 2 -55 12 -117 21 l-112 17 -22 -26 c-12 -15 -37
-29 -57 -33 -26 -5 -31 -3 -20 4 27 19 -8 12 -50 -9 -43 -22 -50 -24 -50 -12
0 4 23 21 51 37 29 17 65 41 81 55 l29 25 -207 215 -207 215 -68 11 c-37 5
-77 18 -87 27 -17 15 -38 17 -158 15 l-139 -3 40 -22 40 -22 -118 -1 -117 0
30 -60 c16 -33 30 -61 30 -63 0 -2 -105 -7 -232 -10 -446 -12 -636 -48 -788
-149 -30 -20 -110 -88 -177 -151 -86 -80 -132 -116 -155 -121 -56 -11 -112
-45 -135 -81 -18 -27 -24 -57 -31 -147 -5 -62 -5 -126 -1 -143 5 -17 30 -54
56 -82 27 -28 59 -65 72 -83 13 -17 34 -36 46 -42 14 -6 27 -26 35 -52 16 -56
54 -120 86 -145 l26 -21 -458 -3 c-253 -1 339 -3 1314 -5 1410 -2 1772 -5
1772 -14 0 -19 -67 -71 -113 -88 -22 -8 -42 -21 -45 -28 -5 -16 71 -16 129 1
24 7 63 11 86 9 41 -4 42 -3 48 32 4 20 13 36 20 36 8 0 15 10 17 23 3 20 9
22 85 25 l82 3 7 -28 c3 -15 7 -33 9 -39 6 -19 -38 -53 -80 -62 -27 -5 -41
-14 -43 -26 -4 -17 2 -18 65 -11 37 4 94 6 125 6 71 -1 80 11 73 98 l-5 61 29
0 c29 0 29 0 35 -72 3 -40 7 -262 9 -493 2 -231 7 -428 11 -437 6 -14 -6 -24
-62 -52 -39 -20 -73 -40 -77 -46 -7 -12 68 -13 205 -3 l92 6 -6 43 c-3 26 -1
44 5 46 9 3 98 896 99 986 0 12 5 22 11 22 8 0 10 -150 7 -550 l-5 -550 156 0
156 0 -25 20 c-14 11 -51 30 -82 42 -59 23 -74 38 -38 38 13 0 20 7 20 20 0
11 27 315 60 675 l61 656 -37 99 c-35 94 -36 101 -21 118 10 10 17 29 17 41 0
20 4 22 29 16 23 -5 36 0 61 22 49 44 54 100 19 208 -15 47 -30 116 -34 155
-5 53 -10 67 -21 63 -8 -3 -14 1 -14 11 0 9 4 16 10 16 6 0 5 10 -2 25 -8 19
-14 22 -20 13 -5 -9 -8 -7 -8 7 0 15 -15 26 -62 44 -90 34 -165 70 -149 71 8
0 11 3 8 7 -9 8 -48 -27 -41 -38 3 -5 -2 -6 -10 -3 -9 3 -16 1 -16 -5 0 -16
-36 -13 -50 4 -7 9 -19 14 -27 11 -8 -3 -12 -2 -9 3 3 5 -1 14 -9 21 -13 11
-20 9 -43 -12 -15 -13 -50 -35 -79 -48 -29 -12 -51 -27 -50 -33 1 -5 -4 -12
-12 -15 -9 -3 -11 0 -6 8 6 9 3 9 -13 1 -12 -6 -24 -16 -28 -22 -12 -19 -22
-79 -13 -73 5 3 9 -1 9 -10 0 -8 -5 -16 -11 -18 -15 -5 -61 -252 -53 -287 5
-21 3 -23 -6 -11 -9 12 -10 7 -5 -24 12 -72 43 -97 95 -76 17 7 27 18 25 28
-1 9 0 11 2 5 3 -7 8 -13 13 -13 5 0 6 -31 3 -69 -4 -46 -2 -70 6 -75 19 -12
12 -65 -16 -109 -26 -41 -30 -64 -23 -152 1 -22 -1 -86 -5 -142 l-8 -103 -28
0 c-31 0 -29 -4 -54 152 -8 53 -29 138 -46 190 -30 89 -31 103 -39 323 l-7
230 -45 105 c-63 147 -83 184 -145 272 -62 88 -126 148 -160 148 -13 0 -23 5
-23 10 0 6 -8 10 -19 10 -12 0 -23 -13 -34 -42z m803 -168 c0 -5 -2 -10 -4
-10 -3 0 -8 5 -11 10 -3 6 -1 10 4 10 6 0 11 -4 11 -10z m-2293 -61 c49 -24
177 -145 217 -206 16 -24 26 -51 24 -65 l-3 -23 -338 -3 c-319 -2 -338 -1
-333 15 3 10 19 78 36 152 16 73 33 137 36 142 3 5 75 9 161 9 138 0 162 -2
200 -21z m203 -59 c22 -44 40 -82 40 -86 0 -3 -24 15 -52 42 -29 26 -77 63
-105 82 -29 19 -53 36 -53 38 0 2 29 4 65 4 l65 0 40 -80z m-600 67 c0 -5 -61
-271 -66 -289 -5 -16 -24 -18 -210 -18 -123 0 -213 4 -225 10 -13 8 -19 21
-19 47 0 100 129 187 341 232 82 17 179 27 179 18z m2585 -17 c3 -5 1 -10 -4
-10 -6 0 -11 5 -11 10 0 6 2 10 4 10 3 0 8 -4 11 -10z m395 -4 c0 -3 -4 -8
-10 -11 -5 -3 -10 -1 -10 4 0 6 5 11 10 11 6 0 10 -2 10 -4z m-300 -16 c0 -5
-2 -10 -4 -10 -3 0 -8 5 -11 10 -3 6 -1 10 4 10 6 0 11 -4 11 -10z m317 -22
c-3 -8 -6 -5 -6 6 -1 11 2 17 5 13 3 -3 4 -12 1 -19z m-177 -4 c0 -8 -4 -12
-10 -9 -5 3 -10 10 -10 16 0 5 5 9 10 9 6 0 10 -7 10 -16z m30 12 c0 -3 -4 -8
-10 -11 -5 -3 -10 -1 -10 4 0 6 5 11 10 11 6 0 10 -2 10 -4z m-123 -28 c-3 -8
-6 -5 -6 6 -1 11 2 17 5 13 3 -3 4 -12 1 -19z m-132 2 c3 -5 1 -10 -4 -10 -6
0 -11 5 -11 10 0 6 2 10 4 10 3 0 8 -4 11 -10z m50 1 c3 -5 1 -12 -5 -16 -5
-3 -10 1 -10 9 0 18 6 21 15 7z m425 -1 c0 -5 -4 -10 -10 -10 -5 0 -10 5 -10
10 0 6 5 10 10 10 6 0 10 -4 10 -10z m-160 -10 c0 -5 -4 -10 -10 -10 -5 0 -10
5 -10 10 0 6 5 10 10 10 6 0 10 -4 10 -10z m37 -12 c-3 -8 -6 -5 -6 6 -1 11 2
17 5 13 3 -3 4 -12 1 -19z m-182 -17 c3 -5 1 -12 -5 -16 -5 -3 -10 1 -10 9 0
18 6 21 15 7z m225 -7 c0 -8 -4 -12 -10 -9 -5 3 -10 10 -10 16 0 5 5 9 10 9 6
0 10 -7 10 -16z m-423 -56 c-2 -13 -4 -3 -4 22 0 25 2 35 4 23 2 -13 2 -33 0
-45z m260 40 c-3 -8 -6 -5 -6 6 -1 11 2 17 5 13 3 -3 4 -12 1 -19z m-277 2 c0
-5 -2 -10 -4 -10 -3 0 -8 5 -11 10 -3 6 -1 10 4 10 6 0 11 -4 11 -10z m70 0
c0 -5 -2 -10 -4 -10 -3 0 -8 5 -11 10 -3 6 -1 10 4 10 6 0 11 -4 11 -10z m95
1 c3 -5 1 -12 -5 -16 -5 -3 -10 1 -10 9 0 18 6 21 15 7z m355 -7 c0 -8 -4 -12
-10 -9 -5 3 -10 10 -10 16 0 5 5 9 10 9 6 0 10 -7 10 -16z m-390 -4 c0 -5 -2
-10 -4 -10 -3 0 -8 5 -11 10 -3 6 -1 10 4 10 6 0 11 -4 11 -10z m200 0 c0 -5
-2 -10 -4 -10 -3 0 -8 5 -11 10 -3 6 -1 10 4 10 6 0 11 -4 11 -10z m30 -30 c0
-5 -5 -10 -11 -10 -5 0 -7 5 -4 10 3 6 8 10 11 10 2 0 4 -4 4 -10z m-280 -16
c0 -8 -5 -12 -10 -9 -6 4 -8 11 -5 16 9 14 15 11 15 -7z m130 -10 c0 -8 -5
-12 -10 -9 -6 4 -8 11 -5 16 9 14 15 11 15 -7z m80 6 c0 -5 -4 -10 -10 -10 -5
0 -10 5 -10 10 0 6 5 10 10 10 6 0 10 -4 10 -10z m110 0 c0 -5 -4 -10 -10 -10
-5 0 -10 5 -10 10 0 6 5 10 10 10 6 0 10 -4 10 -10z m150 -26 c0 -8 -4 -12
-10 -9 -5 3 -10 13 -10 21 0 8 5 12 10 9 6 -3 10 -13 10 -21z m-569 -27 c-8
-8 -11 -7 -11 4 0 20 13 34 18 19 3 -7 -1 -17 -7 -23z m36 -44 c-2 -16 -4 -3
-4 27 0 30 2 43 4 28 2 -16 2 -40 0 -55z m490 45 c-3 -8 -6 -5 -6 6 -1 11 2
17 5 13 3 -3 4 -12 1 -19z m-80 -10 c-3 -8 -6 -5 -6 6 -1 11 2 17 5 13 3 -3 4
-12 1 -19z m-69 -10 c12 0 22 -6 22 -14 0 -8 -10 -19 -22 -24 -13 -5 -19 -9
-14 -9 6 -1 1 -7 -9 -15 -16 -12 -22 -12 -40 0 -21 13 -21 12 -21 -32 1 -61
-23 -80 -53 -43 -11 13 -20 19 -21 13 0 -10 -42 -34 -59 -34 -13 0 -23 65 -15
95 4 16 12 24 19 21 8 -3 24 4 36 15 12 11 34 22 48 25 14 3 31 7 36 9 6 3 24
2 40 -1 17 -3 40 -5 53 -6z m232 -29 c0 -6 -4 -7 -10 -4 -5 3 -10 11 -10 16 0
6 5 7 10 4 6 -3 10 -11 10 -16z m-510 -13 c0 -3 -4 -8 -10 -11 -5 -3 -10 -1
-10 4 0 6 5 11 10 11 6 0 10 -2 10 -4z m-183 -48 c-3 -8 -6 -5 -6 6 -1 11 2
17 5 13 3 -3 4 -12 1 -19z m631 -59 c-1 -62 -4 -72 -24 -86 -27 -17 -71 -12
-171 18 -68 21 -87 37 -54 46 11 3 18 9 15 14 -3 5 2 12 10 15 14 5 30 2 91
-22 19 -7 18 -5 -2 18 -44 48 -19 67 28 22 30 -28 55 -27 66 3 8 24 23 43 34
43 5 0 8 -32 7 -71z m32 50 c0 -6 -4 -7 -10 -4 -5 3 -10 11 -10 16 0 6 5 7 10
4 6 -3 10 -11 10 -16z m37 -1 c-3 -8 -6 -5 -6 6 -1 11 2 17 5 13 3 -3 4 -12 1
-19z m-527 -49 c0 -6 -4 -7 -10 -4 -5 3 -10 11 -10 16 0 6 5 7 10 4 6 -3 10
-11 10 -16z m-1332 -15 c83 -4 152 -10 152 -13 0 -12 -72 -48 -129 -65 -62
-18 -197 -21 -253 -6 -48 14 -98 56 -98 82 0 20 4 20 88 15 48 -4 156 -9 240
-13z m1232 6 c0 -5 -2 -10 -4 -10 -3 0 -8 5 -11 10 -3 6 -1 10 4 10 6 0 11 -4
11 -10z m620 6 c0 -3 -4 -8 -10 -11 -5 -3 -10 -1 -10 4 0 6 5 11 10 11 6 0 10
-2 10 -4z m-1150 -37 c0 -18 -2 -19 -15 -9 -15 12 -12 30 6 30 5 0 9 -10 9
-21z m470 -10 c0 -6 -4 -7 -10 -4 -5 3 -10 11 -10 16 0 6 5 7 10 4 6 -3 10
-11 10 -16z m150 11 c0 -5 -2 -10 -4 -10 -3 0 -8 5 -11 10 -3 6 -1 10 4 10 6
0 11 -4 11 -10z m110 -10 c0 -5 -5 -10 -11 -10 -5 0 -7 5 -4 10 3 6 8 10 11
10 2 0 4 -4 4 -10z m390 -40 c0 -5 -2 -10 -4 -10 -3 0 -8 5 -11 10 -3 6 -1 10
4 10 6 0 11 -4 11 -10z m-286 -25 c3 -8 1 -15 -4 -15 -6 0 -10 7 -10 15 0 8 2
15 4 15 2 0 6 -7 10 -15z m-67 -37 c-3 -8 -6 -5 -6 6 -1 11 2 17 5 13 3 -3 4
-12 1 -19z m233 12 c0 -5 -4 -10 -10 -10 -5 0 -10 5 -10 10 0 6 5 10 10 10 6
0 10 -4 10 -10z m-103 -22 c-3 -8 -6 -5 -6 6 -1 11 2 17 5 13 3 -3 4 -12 1
-19z m-310 -10 c-3 -8 -6 -5 -6 6 -1 11 2 17 5 13 3 -3 4 -12 1 -19z m430 -20
c-3 -8 -6 -5 -6 6 -1 11 2 17 5 13 3 -3 4 -12 1 -19z m-67 -4 c0 -8 -4 -12
-10 -9 -5 3 -10 10 -10 16 0 5 5 9 10 9 6 0 10 -7 10 -16z m-290 -25 c0 -5 -4
-9 -10 -9 -5 0 -10 7 -10 16 0 8 5 12 10 9 6 -3 10 -10 10 -16z m167 -1 c-3
-8 -6 -5 -6 6 -1 11 2 17 5 13 3 -3 4 -12 1 -19z m150 -4 c-3 -3 -12 -4 -19
-1 -8 3 -5 6 6 6 11 1 17 -2 13 -5z m-377 -24 c0 -5 -2 -10 -4 -10 -3 0 -8 5
-11 10 -3 6 -1 10 4 10 6 0 11 -4 11 -10z m207 4 c-3 -3 -12 -4 -19 -1 -8 3
-5 6 6 6 11 1 17 -2 13 -5z m-170 -20 c-3 -3 -12 -4 -19 -1 -8 3 -5 6 6 6 11
1 17 -2 13 -5z m-2464 -364 c10 -28 35 -68 56 -90 l38 -40 -294 0 -295 0 30
30 c27 26 59 83 75 133 6 15 24 17 189 17 l183 0 18 -50z m2077 43 c0 -5 9
-45 19 -90 l19 -83 -80 0 -81 0 7 73 c10 108 10 107 67 107 27 0 49 -3 49 -7z
m-734 -63 c15 -34 40 -72 56 -85 l30 -25 -298 0 -297 0 26 20 c14 12 40 50 58
85 l32 65 183 0 183 0 27 -60z m1284 -75 c0 -19 -4 -35 -8 -35 -4 0 -6 16 -4
35 2 19 6 35 8 35 2 0 4 -16 4 -35z m-820 -15 c0 -15 -7 -20 -26 -20 l-26 0
23 20 c30 24 29 24 29 0z m-1316 -5 c18 -14 17 -15 -25 -15 -41 1 -43 2 -25
15 24 18 26 18 50 0z"/>
<path d="M4380 3186 c0 -2 8 -10 18 -17 15 -13 16 -12 3 4 -13 16 -21 21 -21
13z"/>
<path d="M4630 3170 c0 -5 9 -10 20 -10 18 0 20 -7 20 -55 0 -30 5 -55 10 -55
6 0 10 25 10 55 0 49 2 55 21 55 11 0 17 5 14 10 -3 6 -26 10 -51 10 -24 0
-44 -4 -44 -10z"/>
<path d="M5184 3158 c-17 -19 -17 -21 -1 -15 15 6 17 0 17 -43 0 -28 5 -50 10
-50 6 0 10 28 10 65 0 36 -4 65 -8 65 -5 0 -17 -10 -28 -22z"/>
<path d="M5287 3166 c-21 -16 -22 -27 -2 -20 12 5 15 -4 15 -45 0 -28 5 -51
10 -51 12 0 14 116 2 124 -4 2 -15 -1 -25 -8z"/>
<path d="M5421 3166 c-18 -21 -10 -97 12 -110 26 -17 51 4 55 47 5 63 -35 101
-67 63z m44 -56 c0 -50 -24 -64 -35 -20 -9 38 0 71 19 68 12 -2 16 -15 16 -48z"/>
<path d="M5521 3166 c-18 -21 -10 -97 12 -110 26 -17 51 4 55 47 5 63 -35 101
-67 63z m44 -56 c0 -50 -24 -64 -35 -20 -9 38 0 71 19 68 12 -2 16 -15 16 -48z"/>
<path d="M5681 3138 c-27 -64 -33 -88 -23 -88 5 0 12 9 15 20 3 13 14 20 30
20 17 0 28 -7 32 -20 3 -11 11 -20 16 -20 6 0 7 9 3 23 -13 41 -43 107 -49
107 -3 0 -14 -19 -24 -42z m39 -25 c0 -7 -7 -13 -15 -13 -16 0 -19 9 -9 35 5
13 8 14 15 3 5 -7 9 -19 9 -25z"/>
<path d="M5782 3113 l1 -68 6 55 6 55 18 -52 c10 -29 22 -53 26 -53 5 0 18 24
29 53 l21 52 0 -52 c1 -30 6 -53 11 -53 15 0 8 122 -6 127 -6 2 -20 -20 -32
-49 -16 -44 -21 -50 -27 -33 -41 109 -56 113 -53 18z"/>
<path d="M11310 3100 c0 -40 4 -70 10 -70 6 0 10 30 10 70 0 40 -4 70 -10 70
-6 0 -10 -30 -10 -70z"/>
<path d="M10290 3095 c0 -75 17 -89 22 -17 l3 47 28 -47 c40 -69 57 -64 57 17
0 37 -4 65 -10 65 -5 0 -10 -21 -10 -47 l0 -48 -30 48 c-43 68 -60 63 -60 -18z"/>
<path d="M10747 3142 c-20 -21 -23 -82 -5 -100 14 -14 78 -16 78 -2 0 6 -11
10 -24 10 -35 0 -52 25 -40 58 8 21 16 27 38 25 17 -1 26 2 23 10 -6 20 -52
20 -70 -1z"/>
<path d="M11102 3148 c-20 -20 -14 -48 13 -60 14 -6 25 -18 25 -26 0 -10 -8
-13 -25 -10 -17 4 -25 1 -25 -9 0 -21 60 -13 74 10 9 15 5 23 -24 47 -28 23
-32 30 -19 35 9 3 21 5 27 3 5 -2 11 2 11 7 2 15 -42 18 -57 3z"/>
<path d="M4740 3100 c0 -27 5 -50 10 -50 6 0 10 23 10 50 0 28 -4 50 -10 50
-5 0 -10 -22 -10 -50z"/>
<path d="M4790 3098 c0 -57 17 -65 22 -11 2 27 8 39 21 41 14 3 17 -4 17 -37
0 -51 18 -54 22 -4 2 27 8 39 21 41 14 3 17 -4 17 -37 0 -23 5 -41 11 -41 6 0
9 19 7 48 l-3 47 -67 0 -68 1 0 -48z"/>
<path d="M4982 3138 c-7 -7 -12 -24 -12 -38 0 -33 17 -50 50 -49 20 1 21 2 5
6 -51 13 -54 43 -4 43 32 0 34 3 19 31 -12 21 -40 25 -58 7z m46 -16 c2 -7 -7
-12 -23 -12 -24 0 -26 2 -15 15 14 17 31 16 38 -3z"/>
<path d="M5070 3134 c0 -8 5 -12 10 -9 6 3 10 10 10 16 0 5 -4 9 -10 9 -5 0
-10 -7 -10 -16z"/>
<path d="M5366 3141 c-4 -5 -2 -12 3 -15 5 -4 12 -2 15 3 4 5 2 12 -3 15 -5 4
-12 2 -15 -3z"/>
<path d="M10442 3118 c-7 -7 -12 -24 -12 -38 0 -14 5 -31 12 -38 14 -14 68
-16 68 -2 0 6 -11 10 -25 10 -14 0 -25 5 -25 10 0 6 14 10 30 10 22 0 30 5 30
18 0 24 -19 42 -45 42 -12 0 -26 -5 -33 -12z m53 -18 c3 -5 -3 -10 -14 -10
-12 0 -21 5 -21 10 0 6 6 10 14 10 8 0 18 -4 21 -10z"/>
<path d="M10520 3128 c0 -2 6 -23 14 -48 17 -58 39 -63 52 -13 l10 38 8 -38
c11 -51 35 -45 52 13 16 54 16 50 4 50 -5 0 -16 -15 -23 -32 l-14 -33 -7 33
c-4 17 -14 32 -21 32 -7 0 -17 -15 -21 -32 l-7 -33 -14 33 c-7 17 -18 32 -23
32 -6 0 -10 -1 -10 -2z"/>
<path d="M10855 3121 c-3 -7 2 -11 14 -11 33 0 33 -17 0 -24 -25 -5 -30 -10
-27 -28 2 -19 10 -23 41 -25 l38 -1 -3 46 c-3 42 -6 47 -30 50 -14 2 -29 -2
-33 -7z m40 -62 c-4 -5 -13 -9 -22 -9 -13 0 -13 3 -3 15 13 15 35 11 25 -6z"/>
<path d="M10960 3078 c0 -26 5 -48 10 -48 6 0 10 11 10 25 0 14 9 34 20 45 26
26 26 27 -10 27 -29 0 -30 -2 -30 -49z"/>
<path d="M11200 3120 c0 -5 9 -10 20 -10 11 0 20 -4 20 -10 0 -5 -8 -10 -19
-10 -24 0 -43 -23 -35 -44 4 -11 17 -15 45 -14 38 1 39 2 39 38 0 20 -5 41
-12 48 -15 15 -58 16 -58 2z m40 -55 c0 -8 -7 -15 -15 -15 -26 0 -18 20 13 29
1 1 2 -6 2 -14z"/>
<path d="M11362 3118 c-7 -7 -12 -24 -12 -38 0 -14 5 -31 12 -38 14 -14 68
-16 68 -2 0 6 -11 10 -25 10 -14 0 -25 5 -25 10 0 6 14 10 30 10 22 0 30 5 30
18 0 24 -19 42 -45 42 -12 0 -26 -5 -33 -12z m53 -18 c3 -5 -3 -10 -14 -10
-12 0 -21 5 -21 10 0 6 6 10 14 10 8 0 18 -4 21 -10z"/>
<path d="M11457 3123 c-14 -13 -6 -42 13 -48 11 -3 20 -11 20 -16 0 -5 -9 -9
-20 -9 -11 0 -20 -4 -20 -10 0 -5 14 -10 30 -10 44 0 51 27 14 57 l-29 23 28
0 c16 0 26 4 22 10 -7 11 -48 14 -58 3z"/>
<path d="M5070 3060 c0 -5 5 -10 10 -10 6 0 10 5 10 10 0 6 -4 10 -10 10 -5 0
-10 -4 -10 -10z"/>
<path d="M5360 3060 c0 -5 7 -10 15 -10 8 0 15 5 15 10 0 6 -7 10 -15 10 -8 0
-15 -4 -15 -10z"/>
<path d="M9645 2941 c-48 -12 -93 -39 -100 -60 -9 -28 11 -95 51 -169 24 -47
32 -71 27 -93 -3 -16 -11 -29 -17 -29 -6 0 -19 -9 -29 -20 -11 -14 -29 -20
-56 -20 -74 0 -109 -54 -151 -237 -23 -96 -25 -155 -8 -271 l11 -83 -30 -42
c-18 -25 -52 -53 -83 -69 -45 -24 -49 -28 -25 -28 16 0 35 9 45 23 19 22 19
21 2 -15 -10 -22 -21 -33 -26 -27 -6 5 -277 9 -641 9 l-631 0 -72 -44 c-67
-42 -142 -97 -221 -164 l-33 -28 28 -55 c30 -60 32 -103 6 -132 -14 -16 -26
-18 -76 -13 -33 3 -70 13 -82 21 -22 14 -23 13 -42 -38 -11 -28 -22 -69 -25
-89 l-6 -37 72 -4 72 -3 -72 -2 -73 -2 0 -127 c0 -138 16 -198 59 -225 12 -7
21 -20 21 -29 0 -35 43 -156 72 -202 17 -26 49 -58 71 -72 l42 -24 -135 -4
c-74 -1 294 -4 818 -5 l952 -2 -6 -82 c-3 -46 -10 -98 -14 -115 -7 -26 -5 -33
6 -33 20 0 18 -47 -5 -84 -10 -17 -22 -41 -26 -54 l-7 -23 108 3 c60 2 109 7
111 13 1 6 -24 23 -57 38 -56 26 -60 30 -54 55 10 48 13 52 34 52 11 0 20 6
20 13 2 54 10 120 20 164 l12 53 79 0 79 0 2 -87 c0 -49 0 -100 -1 -115 -2
-20 2 -28 13 -28 12 0 16 -10 16 -39 0 -22 -4 -41 -9 -43 -5 -1 -12 -20 -16
-40 l-7 -38 120 0 c91 0 122 3 131 14 10 12 2 16 -46 26 -88 18 -113 36 -113
82 0 31 4 38 19 38 21 0 33 22 25 45 -4 9 -3 54 1 100 l7 85 464 0 464 0 -5
22 c-4 23 -37 261 -51 368 -12 101 -6 492 10 670 9 96 16 182 16 192 0 16 -12
18 -145 18 l-145 0 0 33 c0 32 -24 135 -34 144 -3 3 -21 -6 -41 -21 -34 -26
-35 -29 -35 -92 l0 -64 -215 0 -215 0 -2 48 c-1 55 -2 45 13 187 14 143 16
148 39 105 10 -19 31 -47 47 -62 35 -33 154 -98 185 -102 13 -1 32 -7 43 -13
11 -6 38 -14 60 -17 37 -6 42 -5 58 23 17 28 17 30 0 40 -10 6 -13 11 -7 11 5
0 19 6 29 14 17 12 16 18 -34 111 -29 53 -51 99 -49 100 4 4 213 -22 285 -36
34 -6 68 -18 74 -26 15 -17 29 -1 29 34 0 20 -29 36 -108 59 -10 3 -7 16 13
50 15 25 25 47 22 50 -2 2 -16 -19 -31 -47 -20 -36 -32 -49 -43 -44 -35 13
-208 35 -358 45 -88 7 -162 14 -165 16 -3 3 -16 40 -30 82 -28 86 -50 107
-122 121 -26 4 -54 16 -63 25 -9 9 -25 16 -36 16 -14 0 -19 7 -19 25 0 18 5
25 19 25 28 0 69 37 76 70 4 17 11 30 16 30 6 0 7 5 3 12 -10 16 -16 62 -15
126 0 47 -2 54 -25 62 -29 11 -85 11 -129 1z m-162 -850 l-18 -26 -3 69 c-2
46 3 87 15 125 l18 56 3 -99 c2 -81 0 -103 -15 -125z m674 163 c22 -4 35 -16
48 -42 21 -46 65 -161 65 -173 0 -5 -16 -9 -35 -9 -19 0 -35 4 -35 9 0 5 -21
21 -47 37 -85 48 -119 81 -141 134 l-21 50 68 0 c38 0 82 -3 98 -6z m-667
-356 c0 -16 -3 -19 -11 -11 -6 6 -8 16 -5 22 11 17 16 13 16 -11z m-358 -194
c-114 -90 -120 -97 -110 -119 16 -35 4 -64 -54 -128 l-53 -58 -145 -15 c-223
-22 -247 -22 -269 1 -11 11 -22 35 -26 52 -6 29 -2 38 37 78 l43 45 185 41
c172 38 202 41 255 25 15 -5 47 16 130 83 61 49 114 90 119 90 5 1 -45 -42
-112 -95z m145 24 c-3 -8 -6 -5 -6 6 -1 11 2 17 5 13 3 -3 4 -12 1 -19z m80
-493 c12 -8 31 -30 42 -48 l20 -33 -24 -248 c-26 -270 -28 -275 -88 -276 -172
-2 -229 436 -77 588 36 36 89 43 127 17z m-649 -12 c-104 -2 -272 -2 -375 0
-104 1 -19 2 187 2 206 0 291 -1 188 -2z m929 -373 c23 0 23 0 23 -155 l0
-155 -81 0 c-72 0 -80 2 -75 18 2 9 17 78 31 152 36 184 32 173 58 155 12 -8
32 -15 44 -15z m-1154 0 c23 -18 40 -20 186 -20 l160 0 11 -42 c29 -113 80
-197 138 -228 l37 -19 -495 0 -495 -1 41 25 c23 14 55 46 72 72 31 50 72 168
72 209 l0 24 124 0 c108 0 126 -2 149 -20z m1883 -27 c17 -79 28 -112 49 -153
26 -51 78 -104 115 -119 17 -7 -92 -10 -350 -10 l-376 -1 14 143 c7 78 15 148
17 155 3 9 65 12 264 12 l261 0 6 -27z m-1006 -273 c0 -5 -10 -10 -22 -10 -19
0 -20 2 -8 10 19 13 30 13 30 0z"/>
<path d="M10843 2875 c-18 -8 -37 -24 -42 -37 -5 -13 -17 -42 -26 -64 -21 -51
-14 -84 16 -77 11 3 16 9 10 12 -5 4 -6 12 -2 19 12 19 111 -14 111 -37 0 -9
9 -30 19 -48 15 -23 25 -30 40 -26 14 3 23 -1 27 -12 5 -13 -4 -26 -31 -49
-36 -31 -38 -34 -33 -80 3 -27 12 -52 19 -57 20 -12 -20 -50 -81 -79 -54 -25
-63 -22 -74 22 -6 27 -1 35 48 76 26 21 19 47 -16 63 -18 8 -43 29 -55 47
l-22 33 -10 -35 c-11 -41 1 -97 24 -116 24 -20 18 -25 -32 -28 -58 -3 -67 -12
-87 -82 l-17 -55 25 -22 c26 -22 25 -19 53 -258 7 -63 13 -74 26 -45 10 25 10
25 14 3 4 -21 10 -23 58 -23 48 0 54 3 58 23 l4 22 8 -22 c6 -20 14 -23 55
-23 41 0 49 3 55 23 l8 22 4 -22 c2 -13 10 -23 18 -23 10 0 14 32 17 137 l4
136 33 26 c18 14 45 35 58 47 l25 20 -26 52 c-15 29 -32 55 -39 57 -7 2 -25 6
-41 10 l-29 6 26 27 c60 63 76 172 33 235 -13 19 -27 44 -31 56 -3 11 -16 28
-28 38 -12 10 -30 35 -40 56 -11 26 -28 43 -52 53 -41 17 -42 17 -82 -1z m-80
-529 c-5 -40 -3 -45 18 -49 23 -5 23 -5 -1 -4 -27 2 -37 29 -26 73 10 38 14
28 9 -20z m198 -22 c-30 -38 -58 -56 -79 -51 -13 4 -12 5 4 6 12 0 37 18 55
39 38 44 53 48 20 6z m-111 -34 c8 -5 11 -10 5 -10 -5 0 -17 5 -25 10 -8 5
-10 10 -5 10 6 0 17 -5 25 -10z"/>
<path d="M7330 2688 c-30 -108 -29 -296 1 -361 21 -46 122 -83 154 -57 10 9
15 9 15 1 0 -6 18 -11 45 -11 25 0 45 4 45 8 0 5 13 7 30 4 36 -5 80 5 80 18
0 6 -35 10 -82 10 -164 0 -233 32 -258 118 -16 57 -23 190 -12 255 10 66 -2
77 -18 15z"/>
<path d="M10880 2675 c7 -9 15 -13 17 -11 7 7 -7 26 -19 26 -6 0 -6 -6 2 -15z"/>
<path d="M10780 2670 c0 -5 5 -10 11 -10 5 0 7 5 4 10 -3 6 -8 10 -11 10 -2 0
-4 -4 -4 -10z"/>
<path d="M10850 2654 c0 -8 5 -12 10 -9 6 4 8 11 5 16 -9 14 -15 11 -15 -7z"/>
<path d="M7620 2481 c28 -16 82 -22 78 -8 -3 6 -24 13 -49 15 -29 1 -39 -1
-29 -7z"/>
<path d="M8535 2217 c-55 -29 -129 -72 -165 -97 -69 -46 -234 -173 -262 -201
-9 -9 -21 -19 -25 -21 -4 -2 -24 -20 -42 -41 l-35 -37 37 0 c24 0 37 5 37 13
0 17 121 134 215 209 98 77 186 136 280 185 44 23 76 42 70 42 -5 1 -55 -23
-110 -52z"/>
<path d="M495 2219 c-4 -11 -4 -23 -2 -26 9 -8 27 7 27 22 0 23 -18 27 -25 4z"/>
<path d="M430 2156 c0 -8 7 -17 16 -20 28 -11 35 -7 24 14 -12 23 -40 27 -40
6z"/>
<path d="M496 2144 c-4 -11 -1 -14 11 -12 9 2 18 9 21 16 6 18 -25 15 -32 -4z"/>
<path d="M248 2124 c-8 -8 3 -44 13 -44 5 0 9 11 9 25 0 24 -10 32 -22 19z"/>
<path d="M506 2094 c-23 -22 -20 -37 4 -24 11 6 20 17 20 25 0 19 -5 19 -24
-1z"/>
<path d="M432 2078 c3 -7 15 -15 28 -16 21 -3 22 -2 11 12 -16 19 -44 21 -39
4z"/>
<path d="M297 2074 c-10 -10 -9 -44 2 -44 13 0 23 32 13 42 -5 5 -11 5 -15 2z"/>
<path d="M217 2034 c-11 -12 3 -24 28 -24 13 0 26 4 29 9 10 15 -43 29 -57 15z"/>
<path d="M518 2019 c-12 -19 -16 -20 -36 -8 -23 14 -39 8 -27 -11 5 -8 21 -10
42 -7 39 7 66 25 57 38 -9 15 -21 10 -36 -12z"/>
<path d="M324 2015 c-7 -17 4 -37 17 -30 12 8 12 45 -1 45 -6 0 -13 -7 -16
-15z"/>
<path d="M380 1961 c0 -26 -4 -31 -24 -31 -30 0 -44 -18 -20 -27 19 -7 78 50
71 70 -8 25 -27 17 -27 -12z"/>
<path d="M265 1960 c3 -5 15 -10 25 -10 10 0 22 5 25 10 4 6 -7 10 -25 10 -18
0 -29 -4 -25 -10z"/>
<path d="M550 1955 c-7 -9 -11 -18 -8 -20 9 -10 38 7 38 21 0 18 -14 18 -30
-1z"/>
<path d="M480 1935 c0 -10 10 -15 28 -15 26 1 26 1 8 15 -25 19 -36 19 -36 0z"/>
<path d="M438 1913 c-2 -20 -9 -29 -25 -31 -23 -3 -29 -13 -17 -25 11 -11 33
5 54 38 24 39 25 45 6 45 -9 0 -16 -12 -18 -27z"/>
<path d="M563 1883 c-3 -10 -9 -22 -12 -28 -3 -5 5 -3 18 5 24 16 29 32 12 38
-6 2 -14 -5 -18 -15z"/>
<path d="M490 1860 c0 -27 -3 -30 -24 -24 -27 6 -46 -13 -21 -22 9 -4 29 2 45
15 16 11 34 21 40 21 17 0 11 19 -9 30 -29 15 -31 13 -31 -20z"/>
<path d="M11379 1364 c-11 -13 -11 -20 1 -41 8 -14 25 -32 38 -41 21 -14 22
-13 22 20 0 33 -23 78 -39 78 -5 0 -15 -7 -22 -16z"/>
<path d="M10866 1296 c-4 -24 -3 -43 3 -49 16 -16 19 -6 12 43 l-7 45 -8 -39z"/>
<path d="M11492 1239 c-13 -11 -28 -33 -34 -47 -7 -19 -12 -23 -15 -12 -9 26
-46 60 -65 60 -44 0 -29 -53 21 -71 33 -13 124 6 146 31 39 43 -10 80 -53 39z"/>
<path d="M11852 1168 c-18 -18 -11 -98 9 -98 14 0 40 60 37 83 -3 25 -28 33
-46 15z"/>
<path d="M11355 1120 c-12 -19 5 -48 35 -60 44 -18 52 -10 32 30 -17 35 -54
52 -67 30z"/>
<path d="M11479 1078 l-34 -33 39 -3 c44 -4 83 24 73 52 -10 25 -42 19 -78
-16z"/>
<path d="M11761 1067 c-14 -18 -2 -54 27 -81 21 -18 21 -18 28 7 13 55 -26
108 -55 74z"/>
<path d="M11317 1003 c-23 -23 15 -73 55 -73 22 0 23 23 2 55 -16 24 -43 33
-57 18z"/>
<path d="M11849 991 l-23 -18 32 -17 c40 -21 55 -20 83 3 20 16 21 21 10 35
-18 22 -74 20 -102 -3z"/>
<path d="M11697 983 c-14 -13 -6 -51 14 -77 17 -21 24 -25 30 -14 10 15 12 60
3 82 -6 16 -35 22 -47 9z"/>
<path d="M11465 970 c-11 -4 -31 -19 -45 -32 l-25 -23 43 -3 c49 -4 74 12 70
41 -4 24 -16 29 -43 17z"/>
<path d="M11597 903 c-26 -25 48 -145 97 -157 35 -9 58 3 54 28 -3 18 -11 21
-55 24 -52 3 -52 3 -46 32 8 42 -4 80 -26 80 -10 0 -21 -3 -24 -7z"/>
<path d="M11767 879 c-17 -10 -16 -12 8 -30 31 -25 78 -22 83 5 7 33 -50 49
-91 25z"/>
<path d="M11260 856 c0 -27 33 -56 62 -56 22 0 23 23 2 55 -22 34 -64 34 -64
1z"/>
<path d="M11395 824 c-11 -8 -25 -18 -31 -22 -6 -4 -14 -18 -18 -32 -3 -14 -3
-19 0 -12 3 6 22 12 43 12 45 0 74 19 69 46 -4 24 -37 29 -63 8z"/>
<path d="M11487 823 c-14 -14 -6 -58 15 -80 l21 -23 -24 -27 c-13 -16 -15 -20
-5 -11 18 16 21 16 48 -3 37 -27 82 -22 86 8 4 24 -22 36 -68 31 -23 -3 -25 0
-22 34 4 56 -25 97 -51 71z"/>
<path d="M10966 763 c-10 -42 -60 -111 -91 -125 -20 -9 -25 -18 -25 -50 0 -24
5 -38 13 -38 24 0 83 58 108 106 24 45 25 53 14 94 l-12 45 -7 -32z"/>
<path d="M11237 738 c-8 -24 16 -58 50 -70 18 -7 33 -15 33 -18 0 -3 17 -4 38
-2 26 3 42 -1 51 -12 11 -13 8 -22 -19 -56 -43 -54 -68 -53 -73 3 l-4 42 -1
-42 -2 -42 -72 -4 c-40 -1 78 -3 262 -3 220 1 255 2 102 3 l-233 3 27 35 c25
34 28 35 50 20 13 -8 39 -15 58 -15 33 0 47 13 39 38 -6 14 -79 16 -88 2 -15
-24 -22 -6 -18 49 4 50 2 59 -14 65 -13 5 -28 -3 -55 -33 -27 -28 -38 -35 -38
-23 0 15 -2 15 -10 2 -8 -12 -10 -11 -10 5 0 45 -60 89 -73 53z"/>
<path d="M11331 724 c0 -11 3 -14 6 -6 3 7 2 16 -1 19 -3 4 -6 -2 -5 -13z"/>
<path d="M11449 643 c-13 -16 -12 -17 4 -4 16 13 21 21 13 21 -2 0 -10 -8 -17
-17z"/>
<path d="M10903 533 c26 -2 68 -2 95 0 26 2 4 3 -48 3 -52 0 -74 -1 -47 -3z"/>
<path d="M10744 344 c3 -9 6 -17 6 -19 0 -2 16 -7 35 -11 49 -9 85 2 85 26 0
18 -7 20 -66 20 -56 0 -65 -2 -60 -16z"/>
<path d="M11084 344 c3 -9 6 -17 6 -19 0 -2 16 -7 35 -11 49 -9 85 2 85 26 0
18 -7 20 -66 20 -56 0 -65 -2 -60 -16z"/>
<path d="M10745 213 c-16 -9 -48 -22 -70 -28 -22 -7 -40 -18 -40 -26 0 -11 25
-15 118 -17 l118 -3 -3 43 -3 43 -45 2 c-27 2 -57 -4 -75 -14z"/>
<path d="M11095 209 c-16 -10 -45 -22 -63 -25 -23 -5 -32 -11 -30 -23 3 -13
22 -16 121 -19 64 -1 117 1 117 5 0 4 -5 25 -11 46 -10 36 -11 37 -57 36 -28
0 -59 -8 -77 -20z"/>
</g>
</svg>
