<?xml version="1.0" standalone="no"?>
<!DOCTYPE svg PUBLIC "-//W3C//DTD SVG 20010904//EN"
 "http://www.w3.org/TR/2001/REC-SVG-20010904/DTD/svg10.dtd">
<svg version="1.0" xmlns="http://www.w3.org/2000/svg"
 width="840.000000pt" height="760.000000pt" viewBox="0 0 840.000000 760.000000"
 preserveAspectRatio="xMidYMid meet">

<g transform="translate(0.000000,760.000000) scale(0.100000,-0.100000)"
fill="#000000" stroke="none">
<path d="M2570 6443 c-8 -4 -32 -17 -52 -30 l-38 -23 0 -150 c0 -83 3 -150 6
-150 3 0 14 5 25 10 16 9 19 22 19 79 0 67 1 69 36 96 57 44 82 126 48 159
-16 17 -20 18 -44 9z m20 -75 c0 -21 -36 -68 -52 -68 -4 0 -8 17 -8 38 0 31 5
41 23 49 27 13 37 8 37 -19z"/>
<path d="M5592 5364 c1 -9 9 -19 16 -22 9 -3 13 2 10 14 -1 9 -9 19 -16 22 -9
3 -13 -2 -10 -14z"/>
<path d="M1523 5244 c-27 -21 -33 -33 -33 -63 0 -20 -6 -61 -14 -91 -14 -54
-19 -91 -17 -119 1 -10 4 -11 15 -2 21 18 28 -2 20 -55 -6 -41 -4 -48 21 -74
16 -17 24 -33 20 -40 -5 -8 -3 -11 6 -8 9 3 14 21 14 54 0 31 7 58 18 74 23
34 21 60 -8 100 -14 19 -25 41 -25 51 0 9 -7 22 -15 29 -16 13 -21 50 -7 50 4
0 13 -5 19 -11 8 -8 17 -2 34 20 31 42 56 40 75 -4 8 -20 19 -33 24 -30 5 3
10 -7 12 -22 l3 -28 13 23 c12 21 11 32 -9 83 -12 33 -31 66 -43 74 -32 23
-86 18 -123 -11z"/>
<path d="M1873 5162 c-41 -4 -42 -22 -3 -44 31 -17 31 -17 41 9 12 32 4 39
-38 35z"/>
<path d="M1595 5130 c4 -6 11 -8 16 -5 14 9 11 15 -7 15 -8 0 -12 -5 -9 -10z"/>
<path d="M1827 5101 c-3 -14 0 -17 19 -13 29 5 30 8 5 21 -15 8 -20 7 -24 -8z"/>
<path d="M1635 5034 c-20 -15 -19 -16 10 -40 34 -28 46 -13 23 30 -12 23 -15
23 -33 10z"/>
<path d="M1811 5034 c-1 -16 5 -21 24 -21 13 0 22 3 19 8 -3 5 -11 9 -19 9 -7
0 -16 6 -18 13 -3 6 -6 2 -6 -9z"/>
<path d="M3625 4902 c6 -6 45 -24 87 -41 95 -37 256 -118 341 -170 57 -34 72
-39 156 -45 59 -5 91 -4 87 2 -16 26 -287 169 -419 221 -53 21 -99 31 -167 36
-66 5 -92 4 -85 -3z"/>
<path d="M3095 4802 c-50 -21 -91 -44 -93 -52 -2 -11 69 -51 246 -139 l248
-123 94 38 c83 35 124 64 90 64 -7 0 -25 11 -41 25 -16 13 -107 63 -202 111
-95 48 -181 93 -192 100 -29 21 -51 17 -150 -24z"/>
<path d="M2798 4676 c-25 -24 -73 -85 -107 -135 -53 -79 -71 -97 -137 -138
-41 -27 -128 -83 -193 -125 l-119 -78 -7 -87 c-11 -159 -11 -170 10 -194 25
-28 210 -119 242 -119 32 0 79 25 87 46 4 9 5 17 4 18 -29 12 -297 145 -314
157 l-24 16 211 189 c116 104 214 190 218 192 4 1 45 -23 92 -54 93 -63 200
-115 327 -160 45 -16 82 -31 82 -34 0 -3 -131 -72 -290 -154 -160 -82 -289
-150 -287 -152 1 -1 64 4 139 12 l136 13 89 57 c48 31 117 76 153 99 36 23 84
54 107 68 28 18 63 57 104 118 33 50 82 111 107 135 25 24 44 46 41 48 -2 2
-35 14 -74 26 -171 56 -381 160 -489 243 -27 20 -52 37 -56 37 -3 0 -27 -20
-52 -44z m330 -140 c59 -29 135 -64 169 -77 34 -13 59 -27 57 -31 -3 -4 0 -8
7 -8 10 0 10 -3 1 -12 -8 -8 -15 -8 -27 2 -8 7 -13 15 -10 18 3 3 -32 20 -78
38 -110 42 -175 75 -274 140 -98 64 -111 81 -18 24 36 -22 114 -64 173 -94z"/>
<path d="M1487 4599 c7 -7 46 -14 89 -17 l76 -5 -4 -101 c-4 -83 -31 -250 -76
-466 -4 -19 -6 -61 -4 -92 l3 -58 48 0 c62 0 77 17 74 84 -1 28 5 119 13 201
14 154 19 370 8 422 l-6 29 -81 0 c-45 -1 -98 2 -117 7 -26 6 -32 5 -23 -4z"/>
<path d="M3955 4581 c-22 -5 -45 -7 -51 -4 -12 4 -286 -102 -363 -141 -25 -14
-60 -39 -77 -58 -48 -51 -154 -200 -155 -217 0 -9 -3 -28 -5 -43 -3 -16 0 -28
5 -28 5 0 11 19 13 43 2 23 8 41 13 40 6 -1 132 47 280 106 149 60 270 108
271 107 0 -1 -1 -58 -4 -128 l-4 -127 -277 -110 c-152 -61 -280 -111 -283
-111 -3 0 -4 37 -1 82 5 60 3 79 -5 74 -13 -8 -17 -176 -4 -176 11 0 566 222
576 231 5 4 12 68 15 141 l6 133 95 38 c52 22 144 59 205 85 103 43 108 46 80
54 -42 13 -282 19 -330 9z m-455 -194 c0 -2 -12 -14 -27 -28 l-28 -24 24 28
c23 25 31 32 31 24z"/>
<path d="M4132 4410 c-84 -49 -142 -142 -142 -231 0 -35 -5 -51 -17 -58 -15
-8 -9 -14 37 -35 30 -14 70 -26 89 -26 80 0 172 75 217 177 70 158 -36 258
-184 173z m126 -67 c30 -40 5 -120 -52 -171 -43 -38 -79 -49 -112 -33 -97 44
11 245 121 226 17 -3 36 -13 43 -22z"/>
<path d="M4124 4296 c-28 -28 -34 -42 -34 -75 0 -34 4 -43 22 -50 26 -9 71 3
89 25 11 13 9 14 -14 3 -58 -26 -77 22 -28 72 35 35 58 37 71 7 9 -23 9 -23 9
3 2 59 -62 68 -115 15z"/>
<path d="M4780 4287 c0 -3 24 -13 53 -22 71 -24 75 -30 31 -54 -22 -11 -34
-20 -29 -21 6 0 28 9 49 21 21 11 45 18 52 15 8 -3 14 -2 14 2 0 5 -33 19 -72
31 -40 13 -79 26 -85 28 -7 3 -13 3 -13 0z"/>
<path d="M5035 4230 c-106 -24 -193 -54 -292 -100 -102 -48 -226 -127 -218
-140 3 -6 33 8 67 31 128 87 320 164 501 199 31 6 57 16 57 21 0 12 -21 10
-115 -11z"/>
<path d="M5230 4219 c30 -17 106 -61 168 -96 61 -36 112 -68 112 -72 0 -4 -27
-13 -60 -19 -85 -18 -204 -59 -281 -97 -69 -35 -244 -149 -255 -166 -16 -27
12 -14 100 45 150 102 231 139 406 186 62 16 104 32 102 39 -1 8 6 7 20 -3 13
-7 49 -16 81 -19 48 -5 57 -3 57 10 0 34 -139 141 -248 190 -46 21 -76 27
-157 30 l-100 4 55 -32z"/>
<path d="M5530 3980 c-181 -32 -358 -100 -488 -189 -72 -49 -184 -169 -295
-316 -80 -106 -86 -112 -176 -160 -84 -45 -98 -57 -147 -125 -30 -41 -54 -85
-54 -98 0 -21 6 -17 40 27 52 65 120 115 252 185 81 43 108 54 114 44 5 -7 10
-73 12 -145 3 -73 6 -133 9 -133 6 0 667 370 675 379 4 3 12 31 18 61 13 69
49 147 89 192 21 24 31 46 31 68 0 25 10 41 55 81 47 44 94 109 78 109 -3 0
-35 -21 -72 -47 -36 -26 -59 -38 -50 -27 27 31 51 85 45 100 -6 17 -5 17 -136
-6z m60 -218 c0 -18 -10 -38 -26 -53 -35 -32 -82 -132 -90 -191 -4 -26 -14
-53 -23 -61 -23 -20 -201 -120 -206 -116 -1 2 -5 63 -7 135 l-3 131 170 91
c94 50 173 91 178 91 4 1 7 -12 7 -27z m-370 -301 l0 -139 -200 -112 c-111
-62 -202 -111 -204 -109 -2 2 -8 63 -13 134 -10 127 -10 130 11 147 l21 18
-22 0 c-28 0 -32 8 -21 47 6 23 16 35 33 39 37 9 95 -4 95 -21 0 -24 19 -17
160 60 74 41 136 74 138 74 1 1 2 -62 2 -138z"/>
<path d="M3013 3965 c-29 -15 -69 -45 -88 -68 -45 -53 -78 -140 -72 -189 4
-28 1 -38 -9 -38 -30 0 -11 -19 46 -44 72 -32 109 -29 178 18 61 41 108 104
127 171 40 137 -54 215 -182 150z m115 -88 c34 -71 -54 -197 -137 -197 -69 0
-89 56 -50 137 28 59 81 95 134 91 33 -2 42 -8 53 -31z"/>
<path d="M3021 3867 c-55 -28 -87 -110 -55 -141 22 -22 70 -15 99 15 l20 21
-26 -16 c-34 -21 -59 -11 -59 23 0 53 76 94 99 54 8 -15 10 -15 11 -3 0 24
-29 60 -48 60 -9 0 -28 -6 -41 -13z"/>
<path d="M4425 3965 c-46 -23 -176 -123 -249 -192 -88 -83 -87 -95 7 -166 147
-112 359 -216 412 -203 15 4 52 30 82 59 71 67 213 244 213 266 0 9 -19 27
-43 40 -23 13 -115 66 -203 117 -89 52 -168 94 -175 94 -8 0 -27 -7 -44 -15z"/>
<path d="M3960 3749 c-223 -116 -486 -251 -584 -301 l-180 -91 -65 21 c-89 29
-89 21 1 -10 144 -50 198 -67 193 -59 -2 5 -25 14 -50 21 -25 7 -47 16 -49 19
-2 3 246 134 551 291 473 243 620 321 593 319 -3 0 -187 -95 -410 -210z"/>
<path d="M5689 3770 c-82 -43 -159 -165 -159 -252 0 -46 2 -48 40 -68 74 -38
155 0 220 104 96 151 33 287 -101 216z m75 -76 c31 -81 -41 -205 -121 -208
-32 -1 -38 3 -47 26 -23 66 64 198 132 198 18 0 32 -6 36 -16z"/>
<path d="M5669 3669 c-11 -11 -18 -23 -15 -26 9 -9 34 5 46 26 14 28 -3 28
-31 0z"/>
<path d="M5717 3658 c-7 -24 12 -43 26 -29 12 12 5 43 -9 48 -6 2 -14 -6 -17
-19z"/>
<path d="M5613 3585 c-13 -41 -3 -47 17 -10 9 17 10 29 4 35 -7 7 -14 -1 -21
-25z"/>
<path d="M5680 3589 c0 -5 5 -7 10 -4 6 3 10 8 10 11 0 2 -4 4 -10 4 -5 0 -10
-5 -10 -11z"/>
<path d="M5700 3571 c-16 -30 -13 -46 6 -31 26 22 37 50 20 50 -9 0 -20 -9
-26 -19z"/>
<path d="M5625 3530 c-18 -20 -17 -20 8 -20 20 0 27 5 27 20 0 11 -4 20 -8 20
-5 0 -17 -9 -27 -20z"/>
<path d="M6885 3533 c6 -6 37 -20 70 -33 110 -43 239 -106 332 -162 89 -54 94
-56 177 -60 47 -2 86 -1 86 4 0 11 -138 91 -255 148 -184 88 -222 101 -325
107 -61 4 -91 2 -85 -4z"/>
<path d="M6348 3432 c-55 -23 -88 -43 -88 -52 0 -20 459 -250 498 -250 35 0
184 61 190 78 2 6 -2 12 -10 12 -7 0 -21 8 -29 18 -23 27 -423 232 -451 231
-13 0 -62 -17 -110 -37z"/>
<path d="M6136 3451 c12 -12 84 -34 90 -28 3 3 -16 12 -42 21 -54 18 -62 19
-48 7z"/>
<path d="M6090 3335 c-7 -8 -17 -15 -22 -15 -6 0 -355 -178 -778 -395 l-767
-395 -58 20 c-32 11 -60 18 -62 16 -3 -2 140 -55 257 -94 9 -3 11 -1 7 4 -5 5
-35 18 -68 29 l-60 20 538 277 c916 471 956 492 950 481 -4 -6 -36 -53 -71
-104 l-64 -94 -193 -125 -194 -126 -3 -79 c-2 -43 -8 -85 -13 -92 -14 -16 -2
-87 19 -113 10 -11 64 -43 122 -71 82 -39 111 -49 135 -44 31 6 75 37 74 52 0
4 -77 45 -171 91 -168 82 -171 83 -152 102 10 11 109 100 218 198 l200 179 49
-38 c73 -55 231 -134 353 -178 l107 -38 -214 -110 c-118 -61 -248 -128 -289
-149 -90 -46 -81 -50 75 -35 l114 11 148 96 c81 52 170 109 197 126 35 23 63
54 104 117 31 47 78 108 105 134 27 26 48 49 46 51 -2 1 -47 17 -99 36 -174
60 -446 202 -490 255 -16 19 -34 19 -50 0z m162 -96 c76 -45 213 -112 293
-144 71 -28 89 -41 78 -59 -4 -5 -14 0 -23 11 -9 11 -62 39 -119 62 -100 40
-261 129 -311 172 l-25 21 28 -16 c15 -10 51 -31 79 -47z"/>
<path d="M1700 3248 c-76 -39 -87 -99 -35 -183 l25 -40 -6 43 c-5 35 -4 42 10
42 9 0 16 -7 16 -15 0 -8 5 -15 10 -15 6 0 10 6 10 13 0 7 6 21 13 31 13 18
16 18 65 2 62 -21 76 -15 66 27 -11 55 -34 88 -69 103 -45 19 -53 18 -105 -8z"/>
<path d="M7210 3210 c-19 -4 -38 -6 -43 -3 -5 3 -92 -27 -194 -68 -138 -55
-196 -83 -228 -111 -53 -46 -175 -215 -176 -243 0 -11 -2 -28 -4 -37 -2 -10 1
-20 6 -24 5 -3 9 10 9 28 0 37 8 52 30 55 8 2 132 50 275 107 143 57 261 103
262 103 0 -1 -1 -59 -4 -128 -6 -124 -6 -126 -32 -136 -14 -6 -132 -53 -261
-105 -129 -53 -244 -98 -255 -101 -19 -7 -20 -3 -16 74 2 58 0 80 -8 75 -13
-8 -15 -176 -3 -176 11 0 574 228 581 236 3 3 8 65 11 137 l5 132 203 84 c111
46 202 86 202 90 0 13 -313 23 -360 11z m-440 -184 c0 -2 -8 -10 -17 -17 -16
-13 -17 -12 -4 4 13 16 21 21 21 13z"/>
<path d="M4615 3192 c-77 -47 -141 -149 -152 -241 l-6 -49 43 -22 c54 -28 105
-23 154 16 21 16 46 45 56 65 11 21 27 45 37 54 12 12 19 38 21 81 4 57 2 65
-21 88 -32 32 -88 35 -132 8z m89 -90 c6 -22 5 -45 -2 -70 -25 -81 -121 -152
-157 -116 -40 40 0 159 67 203 47 30 80 24 92 -17z"/>
<path d="M4602 3090 c-10 -17 -10 -20 3 -20 8 0 19 9 25 20 8 15 8 20 -2 20
-7 0 -19 -9 -26 -20z"/>
<path d="M4656 3094 c-11 -29 -6 -44 14 -44 11 0 20 6 20 14 0 21 -11 46 -20
46 -4 0 -11 -7 -14 -16z"/>
<path d="M4553 3027 c-18 -39 -16 -55 3 -35 9 8 14 26 12 39 -3 23 -3 23 -15
-4z"/>
<path d="M4603 3025 c-3 -9 -3 -18 0 -21 9 -9 27 6 27 22 0 19 -19 18 -27 -1z"/>
<path d="M4648 3009 c-10 -5 -18 -19 -18 -31 0 -17 2 -19 16 -8 19 16 37 50
27 50 -4 0 -16 -5 -25 -11z"/>
<path d="M4561 2957 c-13 -16 -5 -27 21 -27 11 0 18 7 18 20 0 23 -22 27 -39
7z"/>
<path d="M7410 3052 c-86 -42 -160 -152 -160 -238 0 -33 -5 -51 -17 -60 -16
-11 -12 -15 40 -38 32 -14 70 -26 85 -26 41 0 126 46 163 88 41 46 79 132 79
178 0 42 -23 89 -49 104 -30 15 -102 12 -141 -8z m100 -72 c39 -39 19 -123
-43 -177 -46 -40 -89 -50 -124 -28 -23 15 -25 22 -21 70 5 62 38 113 90 138
44 22 74 21 98 -3z"/>
<path d="M7424 2955 c-48 -20 -75 -62 -72 -109 3 -39 5 -41 38 -44 19 -2 44 4
55 12 19 14 18 14 -15 13 -29 -2 -36 2 -38 19 -2 12 9 35 24 53 32 38 65 38
75 1 7 -24 7 -24 8 5 1 53 -26 71 -75 50z"/>
<path d="M1165 2911 c-49 -21 -90 -103 -111 -225 -16 -91 -38 -129 -77 -134
-32 -4 -33 -11 -6 -46 26 -33 59 -35 59 -4 0 24 46 78 67 78 19 0 27 -45 15
-92 -6 -23 -9 -44 -7 -47 9 -9 55 31 71 61 13 24 15 49 12 107 -3 42 -1 88 4
102 7 22 106 109 123 109 2 0 6 -8 8 -17 4 -15 5 -14 6 3 0 12 -4 36 -10 54
-17 49 -95 75 -154 51z"/>
<path d="M1305 2740 c-4 -25 -14 -57 -23 -72 -13 -23 -14 -29 -2 -43 12 -15
16 -8 27 61 8 43 12 82 10 88 -2 6 -7 -9 -12 -34z"/>
<path d="M2670 2626 c0 -14 5 -28 10 -31 6 -3 10 5 10 19 0 14 -4 28 -10 31
-6 3 -10 -5 -10 -19z"/>
<path d="M2715 2602 c3 -8 5 -20 5 -29 0 -19 54 -73 74 -73 9 0 28 24 45 58
l29 57 -79 0 c-62 0 -78 -3 -74 -13z"/>
<path d="M6275 2599 c-88 -44 -155 -145 -161 -242 -1 -28 -7 -53 -13 -55 -21
-7 -10 -19 38 -42 121 -56 265 25 316 180 21 64 13 113 -25 152 -35 34 -94 38
-155 7z m108 -81 c22 -26 21 -53 -2 -103 -26 -57 -71 -96 -117 -102 -56 -7
-79 14 -79 69 0 59 39 118 97 146 47 24 74 21 101 -10z"/>
<path d="M6261 2485 c-42 -36 -58 -88 -37 -120 9 -14 23 -25 32 -25 14 0 74
27 74 33 0 2 -16 1 -35 -1 -33 -4 -35 -2 -35 25 0 55 75 97 99 56 13 -23 14
-2 1 31 -13 35 -58 35 -99 1z"/>
<path d="M2946 2445 c8 -37 14 -45 14 -19 0 10 -5 26 -10 34 -8 11 -9 7 -4
-15z"/>
<path d="M2539 2361 c-26 -27 -55 -63 -63 -79 -14 -27 -14 -33 7 -73 12 -24
35 -51 50 -59 28 -15 29 -14 64 25 70 79 91 160 52 209 -30 38 -56 33 -110
-23z"/>
<path d="M1871 2379 c-1 -26 -46 -78 -52 -61 -6 13 -69 -16 -69 -32 0 -14 -69
-36 -114 -36 -23 0 -26 -4 -26 -35 0 -21 -5 -35 -12 -35 -10 0 -9 -3 1 -9 11
-7 10 -10 -4 -18 -16 -9 -16 -18 -5 -114 7 -61 9 -132 4 -174 l-7 -70 -13 48
c-6 26 -18 54 -24 62 -7 8 -25 41 -40 74 -28 58 -60 91 -90 91 -9 0 -4 -7 12
-17 26 -16 85 -109 75 -119 -2 -2 -30 5 -61 17 -31 12 -59 19 -62 16 -3 -3 0
-39 6 -81 11 -67 11 -78 -4 -101 l-17 -25 48 -21 c92 -40 137 -30 162 33 7 16
10 -30 10 -144 l1 -168 25 -16 c14 -9 45 -19 69 -21 l43 -5 6 53 c4 30 12 155
18 278 7 126 16 216 20 205 4 -10 5 -59 3 -109 -8 -127 18 -314 46 -337 20
-16 106 -35 116 -25 3 2 0 155 -5 338 -9 283 -15 353 -35 459 -13 69 -24 113
-25 99z"/>
<path d="M1479 2359 c35 -21 47 -20 38 6 -4 9 -19 15 -39 15 l-33 0 34 -21z"/>
<path d="M2949 2312 c-3 -20 -2 -29 4 -23 5 5 7 19 5 32 -3 20 -5 19 -9 -9z"/>
<path d="M1435 2291 c-3 -6 1 -14 9 -17 9 -3 16 -14 16 -23 0 -10 3 -12 8 -5
4 6 15 13 25 17 20 7 23 27 5 27 -7 0 -23 3 -34 6 -12 3 -25 1 -29 -5z"/>
<path d="M1371 2034 c0 -11 3 -14 6 -6 3 7 2 16 -1 19 -3 4 -6 -2 -5 -13z"/>
<path d="M2931 1842 c-18 -33 -127 -100 -176 -108 -40 -6 -61 -2 -118 21 -18
7 -18 -8 -11 -390 6 -329 5 -397 -6 -390 -10 6 -11 4 -5 -11 5 -10 10 -38 13
-62 3 -34 9 -45 33 -57 30 -16 99 -20 99 -6 0 4 18 3 40 -3 42 -11 69 -3 78
23 3 10 0 10 -17 2 -34 -19 -85 -1 -89 31 -3 25 -2 26 50 24 l53 -1 17 184
c14 153 14 197 4 261 -13 82 -13 81 38 254 17 57 26 112 26 155 0 76 -12 105
-29 73z"/>
<path d="M1124 1495 c-12 -8 -26 -34 -33 -58 -6 -25 -13 -53 -17 -63 -3 -12 1
-10 11 6 16 25 16 25 10 -17 -6 -37 -3 -45 24 -74 22 -23 31 -42 32 -68 1 -36
1 -36 8 -6 5 25 8 27 14 12 4 -10 7 -27 7 -37 0 -11 9 -24 19 -30 21 -10 91
-14 91 -4 0 20 -24 44 -45 44 -32 0 -61 46 -70 111 -7 51 -13 57 -33 37 -16
-16 -17 66 -1 110 15 43 9 56 -17 37z"/>
<path d="M1802 1448 c2 -6 35 -29 74 -50 72 -39 142 -50 162 -25 8 9 -2 12
-46 12 -44 0 -66 6 -97 25 -58 37 -98 53 -93 38z"/>
<path d="M1580 1404 c0 -8 12 -20 28 -27 15 -7 48 -25 74 -40 37 -22 56 -28
94 -25 26 2 49 8 51 13 2 7 -12 9 -36 7 -39 -4 -77 10 -168 62 -33 19 -43 21
-43 10z"/>
<path d="M2500 882 c0 -25 59 -77 117 -104 66 -30 121 -36 141 -16 17 17 15
33 -3 18 -34 -28 -191 31 -236 88 -10 14 -19 20 -19 14z"/>
</g>
</svg>
